<?xml version="1.0" standalone="no"?>
<!DOCTYPE svg PUBLIC "-//W3C//DTD SVG 20010904//EN"
 "http://www.w3.org/TR/2001/REC-SVG-20010904/DTD/svg10.dtd">
<svg version="1.0" xmlns="http://www.w3.org/2000/svg"
 width="2928.000000pt" height="2928.000000pt" viewBox="0 0 2928.000000 2928.000000"
 preserveAspectRatio="xMidYMid meet">
<metadata>
Created by potrace 1.14, written by Peter Selinger 2001-2017
</metadata>
<g transform="translate(0.000000,2928.000000) scale(0.100000,-0.100000)"
fill="#000000" stroke="none">
<path d="M4849 18625 c-2 -1 -22 -6 -44 -9 -22 -4 -56 -12 -75 -18 -19 -7 -39
-12 -45 -13 -11 -1 -40 -13 -106 -44 -65 -30 -157 -108 -203 -169 l-39 -52
-101 0 c-175 -1 -357 -13 -506 -35 -52 -7 -116 -17 -135 -21 -11 -3 -35 -7
-54 -10 -18 -3 -42 -8 -52 -10 -11 -2 -29 -6 -41 -9 -76 -16 -131 -29 -193
-47 -38 -11 -77 -22 -85 -23 -8 -2 -15 -4 -15 -5 0 -1 -7 -3 -15 -5 -24 -5
-173 -56 -195 -66 -12 -6 -27 -11 -35 -13 -18 -4 -54 -18 -150 -61 -3 -2 -15
-6 -28 -10 -39 -13 -325 -160 -418 -216 -131 -78 -393 -261 -450 -315 -6 -5
-30 -26 -53 -45 -90 -73 -254 -232 -349 -338 -37 -41 -74 -81 -82 -90 -19 -20
-159 -198 -180 -227 -173 -249 -302 -472 -394 -684 -16 -36 -34 -78 -42 -95
-42 -95 -137 -377 -150 -445 -2 -14 -9 -36 -14 -50 -10 -26 -35 -139 -54 -240
-3 -19 -8 -46 -11 -60 -8 -41 -21 -126 -29 -200 -14 -123 -18 -166 -21 -253
-1 -53 -6 -100 -10 -106 -3 -6 -2 -11 3 -11 5 0 6 -16 2 -38 -4 -21 -3 -48 1
-60 5 -12 4 -24 -2 -27 -5 -4 -7 -11 -3 -16 3 -6 8 -56 10 -112 3 -98 8 -160
20 -257 16 -133 26 -194 51 -320 2 -14 5 -26 4 -27 0 -2 5 -17 10 -35 5 -18
12 -44 14 -58 2 -14 6 -35 9 -47 3 -13 1 -25 -5 -28 -5 -4 -18 -25 -30 -48
-11 -23 -27 -55 -36 -70 -22 -42 -21 -94 3 -112 25 -20 97 -41 152 -44 6 -1
12 -5 12 -10 0 -5 5 -22 12 -38 6 -15 12 -30 13 -33 1 -3 7 -18 13 -33 7 -16
12 -31 12 -33 0 -3 8 -24 19 -47 10 -23 31 -71 47 -107 39 -90 159 -325 184
-360 11 -15 20 -33 20 -39 0 -6 5 -11 10 -11 6 0 10 -5 10 -11 0 -6 18 -38 40
-70 22 -32 40 -63 40 -68 0 -5 4 -11 8 -13 5 -1 27 -30 49 -63 95 -142 225
-296 393 -471 l78 -81 -20 -59 c-11 -32 -21 -63 -22 -69 -1 -5 -10 -37 -20
-70 -10 -33 -19 -67 -21 -75 -2 -8 -22 -89 -45 -180 -23 -91 -44 -174 -46
-185 -6 -32 -22 -108 -28 -132 -9 -42 9 -23 39 40 17 34 35 65 40 69 6 4 6 8
1 8 -5 0 -4 6 2 13 5 6 65 122 133 257 67 135 124 247 126 249 8 11 24 -19 17
-31 -5 -7 -9 -15 -9 -18 -2 -13 -71 -146 -78 -151 -5 -3 -9 -10 -9 -15 -1 -15
-22 -59 -31 -65 -5 -3 -9 -10 -9 -15 0 -11 -159 -337 -168 -344 -6 -4 -30 -67
-30 -77 0 -2 122 120 271 270 l271 275 67 -46 c36 -25 68 -49 71 -52 3 -3 17
-11 33 -19 15 -8 27 -18 27 -23 0 -4 5 -8 11 -8 6 0 30 -13 54 -30 24 -16 47
-30 50 -30 4 0 19 -8 33 -19 35 -24 279 -149 362 -185 104 -45 121 -52 194
-80 129 -50 316 -109 436 -137 152 -35 309 -65 400 -75 19 -2 49 -6 65 -9 44
-7 158 -16 248 -19 43 -2 80 -6 83 -9 3 -3 18 -2 33 3 16 4 34 4 41 0 7 -5 24
-4 37 1 15 5 23 5 23 -2 0 -6 4 -8 9 -5 5 3 67 8 137 11 71 3 145 7 164 9 98
13 147 19 170 22 46 5 99 13 162 25 35 6 72 13 83 14 11 2 38 8 60 13 22 6 54
14 70 17 33 7 43 9 65 18 13 5 56 15 77 19 5 0 31 9 58 18 28 9 53 18 57 19
19 4 41 12 163 56 357 131 703 323 1010 562 6 5 35 28 65 53 30 25 61 50 68
55 8 6 89 84 181 175 147 145 216 217 271 286 75 94 127 161 140 180 74 109
96 139 102 142 5 2 8 8 8 14 0 5 10 24 22 41 13 18 28 41 34 52 6 11 33 58 61
105 70 120 173 335 226 470 40 104 115 319 121 352 6 27 19 74 31 113 7 22 16
57 19 79 4 21 8 41 10 45 3 3 7 25 10 47 4 22 9 51 11 64 24 119 36 204 52
375 4 44 7 190 7 325 -1 252 -5 336 -29 505 -3 22 -8 54 -10 70 -2 17 -7 44
-10 60 -6 29 -20 99 -31 160 -2 17 -9 41 -14 55 -5 14 -11 39 -14 55 -2 17 -5
30 -6 30 -1 0 -3 8 -5 17 -12 61 -117 375 -155 463 -10 22 -28 65 -41 95 -32
76 -165 337 -189 370 -11 16 -20 33 -20 39 0 6 -4 11 -10 11 -5 0 -10 5 -10
11 0 22 -242 368 -299 429 -12 13 -10 15 21 22 73 15 89 18 116 23 15 3 38 8
52 11 14 3 34 8 45 10 11 1 34 6 50 9 17 3 41 8 55 11 143 29 262 61 240 67
-14 3 -74 17 -135 32 -60 14 -117 28 -126 30 -9 2 -61 13 -115 25 -193 43
-219 48 -226 43 -5 -2 -8 0 -8 4 0 5 -8 9 -17 9 -22 1 -59 8 -182 33 -74 16
-101 26 -125 49 -17 16 -44 40 -60 53 -15 13 -43 38 -61 54 -48 44 -74 65 -82
65 -3 0 -11 6 -17 14 -15 18 -215 166 -224 166 -5 0 -17 8 -28 18 -23 20 -24
20 -174 109 -105 63 -313 170 -400 206 -19 8 -51 22 -70 30 -56 25 -196 77
-219 82 -12 2 -25 7 -31 10 -12 7 -161 54 -212 66 -21 5 -55 13 -75 19 -83 20
-151 35 -185 39 -4 1 19 47 51 104 104 184 142 259 136 265 -6 7 -290 14 -296
7z m-568 -787 c19 0 29 -4 29 -14 0 -8 4 -22 9 -32 41 -83 61 -134 66 -172 7
-55 15 -99 22 -123 4 -16 14 -17 96 -13 50 2 85 0 77 -4 -8 -4 -60 -10 -115
-14 -55 -3 -125 -10 -155 -17 -30 -6 -64 -12 -75 -14 -11 -2 -45 -11 -75 -19
-30 -9 -64 -18 -75 -21 -81 -19 -374 -153 -405 -185 -3 -3 -17 -11 -32 -17
-16 -7 -28 -17 -28 -23 0 -5 -5 -10 -11 -10 -11 0 -143 -96 -198 -144 -162
-143 -326 -312 -421 -435 -14 -18 -33 -42 -43 -54 -46 -55 -169 -221 -252
-342 -38 -55 -73 -101 -77 -103 -4 -2 -8 -10 -8 -17 0 -8 -6 -20 -13 -27 -6
-7 -37 -51 -67 -98 -30 -47 -58 -86 -62 -88 -5 -2 -8 -8 -8 -14 0 -5 -13 -28
-29 -51 -15 -23 -42 -64 -59 -92 -17 -27 -36 -55 -42 -62 -5 -7 -10 -17 -10
-23 0 -5 -4 -10 -10 -10 -5 0 -10 -5 -10 -11 0 -6 -10 -25 -22 -42 -25 -35
-43 -64 -54 -87 -4 -8 -10 -17 -13 -20 -12 -10 -151 -232 -151 -241 0 -5 -3
-9 -7 -9 -5 0 -20 -21 -35 -48 -15 -26 -35 -56 -45 -67 -11 -11 -20 -24 -20
-28 -1 -5 -8 -18 -17 -30 -9 -12 -38 -55 -65 -94 l-50 -72 87 44 c104 53 211
113 232 129 8 7 29 18 45 26 17 8 32 17 35 21 3 3 41 27 85 54 138 83 285 176
405 255 8 5 67 43 130 84 63 41 120 79 127 85 7 6 15 11 17 11 3 0 63 38 132
85 69 47 127 85 129 85 1 0 -1 -18 -5 -40 -8 -41 5 -66 17 -33 3 10 16 30 27
44 12 14 30 38 41 53 11 15 35 44 52 65 18 20 33 39 33 44 0 4 5 7 11 7 8 0 8
-4 0 -14 -9 -11 -53 -142 -66 -196 -3 -14 -23 -85 -67 -235 -11 -38 -21 -76
-22 -83 -1 -7 -10 -22 -19 -33 -9 -10 -17 -23 -17 -27 0 -5 -8 -26 -19 -48
-10 -21 -42 -91 -71 -154 -56 -125 -130 -279 -276 -577 -52 -106 -94 -196 -94
-199 1 -4 -2 -10 -7 -13 -10 -7 -195 -379 -199 -399 -1 -8 -10 -22 -18 -31 -9
-10 -16 -24 -16 -32 0 -8 -9 -25 -20 -39 -11 -14 -20 -29 -20 -34 0 -5 -56
-123 -126 -264 -69 -140 -126 -260 -127 -266 -1 -6 -5 -13 -8 -16 -3 -3 -27
-50 -53 -105 -27 -55 -60 -125 -74 -155 -15 -30 -26 -58 -24 -62 1 -5 -2 -8
-7 -8 -7 0 -16 -18 -25 -50 0 -3 -14 -34 -31 -70 -16 -36 -30 -67 -31 -70 -1
-6 -44 -99 -80 -176 -13 -28 -24 -54 -24 -58 0 -4 -12 -32 -26 -62 -30 -64
-16 -72 -135 71 -178 214 -295 394 -416 640 -29 61 -62 127 -73 148 l-19 37
27 1 c106 5 217 16 245 25 50 15 87 37 80 48 -3 6 3 3 15 -8 29 -25 71 -18
166 28 41 20 79 36 85 36 6 0 11 4 11 10 0 5 3 9 8 8 4 -2 17 4 30 13 29 21
61 104 70 183 10 90 6 416 -7 674 -1 8 -6 10 -13 6 -10 -6 -10 -4 0 7 36 39
-8 110 -92 150 -80 37 -277 57 -366 36 -84 -21 -103 -27 -128 -43 -29 -19
-154 -144 -271 -273 -41 -45 -75 -80 -77 -79 -4 5 -15 81 -21 148 -14 154 -7
589 11 700 2 14 7 47 11 73 4 27 8 57 10 67 2 9 6 35 9 56 4 22 11 56 17 77 6
21 12 50 14 65 2 15 11 52 20 82 9 30 18 65 21 78 2 13 12 44 21 70 8 26 17
52 18 57 1 6 5 17 8 25 3 8 18 50 33 93 15 43 31 80 35 83 5 3 9 12 9 20 0 47
178 388 289 552 31 46 61 91 66 100 6 9 15 22 20 29 6 7 18 23 27 35 17 22 98
125 128 161 108 133 305 321 505 480 163 131 557 361 705 412 3 1 21 9 40 17
19 9 38 14 42 12 5 -3 8 0 8 7 0 7 3 9 7 6 3 -4 11 -3 17 2 28 22 397 134 480
146 15 2 35 6 45 9 9 3 36 8 61 11 24 4 47 8 50 10 3 2 28 6 55 9 28 4 66 9
85 11 77 11 140 16 258 20 68 2 126 6 129 9 3 3 10 3 16 -1 5 -3 23 -6 38 -5z
m649 -73 c89 -18 125 -27 205 -50 50 -14 97 -28 105 -32 8 -3 22 -7 31 -9 38
-8 327 -124 359 -144 8 -6 26 -15 40 -21 42 -17 144 -71 155 -80 6 -6 -2 -7
-20 -4 -30 5 -118 13 -210 20 -46 3 -95 7 -245 20 -93 8 -318 17 -470 19
l-146 1 36 60 c20 33 51 96 69 140 41 98 39 95 54 90 7 -2 23 -7 37 -10z
m-285 -313 c-3 -3 -11 0 -18 7 -9 10 -8 11 6 5 10 -3 15 -9 12 -12z m35 -17
c11 -13 10 -14 -4 -9 -9 3 -16 10 -16 15 0 13 6 11 20 -6z m41 -32 c13 -16 12
-17 -3 -4 -10 7 -18 15 -18 17 0 8 8 3 21 -13z m24 -50 c-5 -15 -8 -31 -7 -35
1 -5 -2 -8 -8 -8 -12 0 -13 23 -2 34 7 7 8 12 11 38 0 6 4 9 7 5 4 -3 3 -19
-1 -34z m-29 -88 c-8 -19 -13 -35 -11 -35 2 0 -7 -28 -19 -62 -12 -35 -22 -68
-21 -74 0 -6 14 -33 31 -60 70 -110 168 -344 144 -344 -4 0 -11 15 -15 33 -10
41 -8 34 -30 92 -21 55 -84 178 -122 238 l-24 38 25 77 c31 98 44 132 51 132
3 0 -1 -16 -9 -35z m1914 -456 c0 -4 19 -26 43 -51 46 -48 80 -89 157 -188 28
-36 54 -69 58 -75 24 -31 142 -206 142 -211 0 -3 8 -18 18 -32 51 -73 210
-387 216 -426 1 -6 6 -18 11 -26 31 -48 158 -454 171 -545 1 -11 5 -33 9 -50
4 -16 8 -39 10 -50 2 -11 6 -33 9 -50 3 -16 8 -50 11 -75 3 -25 8 -63 11 -85
11 -78 18 -168 25 -360 0 -5 0 -26 0 -45 -1 -19 -1 -42 0 -50 0 -14 -6 -114
-15 -230 -2 -30 -7 -74 -11 -98 -3 -24 -8 -58 -10 -75 -2 -18 -6 -41 -8 -52
-3 -11 -8 -40 -12 -65 -4 -25 -9 -54 -12 -65 -2 -11 -6 -31 -8 -45 -5 -26 -20
-84 -53 -205 -11 -38 -34 -110 -51 -160 -18 -49 -33 -94 -35 -100 -3 -9 -10
-28 -38 -92 -6 -16 -12 -30 -13 -33 -11 -34 -114 -244 -152 -310 -65 -113 -97
-165 -105 -168 -4 -2 -8 -8 -8 -13 0 -11 -130 -198 -155 -222 -8 -9 -15 -19
-15 -23 0 -3 -8 -14 -17 -23 -10 -9 -38 -41 -63 -71 -86 -107 -205 -228 -325
-332 -44 -39 -95 -83 -113 -99 -18 -16 -37 -29 -42 -29 -4 0 -10 -3 -12 -8
-11 -26 -283 -206 -441 -293 -17 -9 -18 -4 -11 93 8 115 8 637 0 738 -8 117
-17 214 -22 255 -3 22 -7 54 -9 70 -2 17 -5 46 -8 65 -10 58 -19 124 -22 150
-2 14 -4 25 -5 25 -2 0 -13 61 -25 145 -2 14 -11 51 -19 82 -9 32 -18 70 -21
85 -2 16 -9 43 -14 61 -5 17 -7 32 -4 32 3 0 0 6 -6 13 -6 8 -13 31 -17 53
-12 75 -138 450 -217 644 -34 84 -142 327 -197 445 -48 104 -90 197 -136 300
-25 55 -49 109 -54 120 -36 80 -104 305 -93 305 3 0 1 6 -4 13 -5 6 -10 28
-12 47 -1 19 -6 38 -9 42 -4 4 -32 9 -62 12 -30 3 -73 7 -95 10 -22 3 -67 8
-100 11 -33 2 -80 7 -105 10 -160 17 -559 24 -640 11 -50 -8 -93 -14 -108 -15
-7 -1 -22 -22 -35 -48 -12 -27 -25 -50 -28 -53 -3 -3 -22 -40 -42 -82 -20 -42
-41 -79 -47 -83 -5 -3 21 55 58 129 72 146 94 167 169 170 18 1 33 4 33 7 0 3
114 5 253 3 227 -2 330 -6 452 -19 22 -3 67 -7 100 -10 33 -3 69 -7 80 -10 11
-2 48 -7 82 -11 49 -5 64 -3 67 7 2 8 14 50 26 94 12 44 26 89 31 100 5 11 16
39 24 63 13 38 47 97 65 112 3 3 17 21 30 40 82 118 233 289 346 389 27 24 61
54 75 66 87 78 366 242 499 294 19 7 49 19 65 26 29 13 154 55 260 88 58 18
169 47 205 54 13 2 26 6 28 8 5 5 42 -18 42 -26z m-1776 -181 c7 -61 4 -118
-5 -118 -4 0 -6 26 -4 58 1 31 -1 69 -6 85 -4 15 -4 27 1 27 5 0 11 -24 14
-52z m-9 -172 c-4 -20 -11 -36 -15 -36 -4 0 -11 -10 -14 -22 -7 -26 -26 -49
-77 -93 -29 -25 -27 -23 8 15 48 52 78 102 88 149 9 44 18 32 10 -13z m-994
-358 c1 -13 3 -51 5 -85 2 -35 0 -63 -4 -63 -4 0 -7 26 -7 58 0 31 -2 61 -4
67 -9 17 -8 45 1 45 4 0 8 -10 9 -22z m7 -203 c-4 -59 -16 -59 -14 0 0 25 4
45 9 45 4 0 6 -20 5 -45z m-403 -5 c-3 -5 -12 -10 -18 -10 -7 0 -6 4 3 10 19
12 23 12 15 0z m395 -75 c0 -14 -4 -25 -9 -25 -4 0 -6 11 -3 25 2 14 6 25 8
25 2 0 4 -11 4 -25z m-20 -92 c-11 -17 -11 -17 -6 0 3 10 6 24 7 30 0 9 2 9 5
0 3 -7 0 -20 -6 -30z m-3 -45 c-3 -8 -6 -5 -6 6 -1 11 2 17 5 13 3 -3 4 -12 1
-19z m-187 -462 c0 -3 -4 -8 -10 -11 -5 -3 -10 -1 -10 4 0 6 5 11 10 11 6 0
10 -2 10 -4z m-20 -36 c0 -5 -4 -10 -10 -10 -5 0 -10 5 -10 10 0 6 5 10 10 10
6 0 10 -4 10 -10z m-33 -60 c-6 -16 -15 -30 -18 -30 -4 0 -2 14 4 30 6 17 15
30 18 30 4 0 2 -13 -4 -30z m-35 -57 c-18 -45 -134 -269 -143 -278 -6 -5 24
59 66 143 42 83 78 152 80 152 3 0 1 -8 -3 -17z m-199 -391 c-26 -50 -49 -90
-51 -88 -2 2 18 45 44 95 26 50 49 90 51 88 1 -2 -18 -45 -44 -95z m-53 -106
c0 -3 -4 -8 -10 -11 -5 -3 -10 -1 -10 4 0 6 5 11 10 11 6 0 10 -2 10 -4z m-42
-74 c-13 -23 -26 -42 -30 -42 -4 0 5 20 19 45 34 55 41 53 11 -3z m-38 -72
c-6 -11 -13 -20 -16 -20 -2 0 0 9 6 20 6 11 13 20 16 20 2 0 0 -9 -6 -20z
m-50 -89 c-16 -33 -34 -62 -39 -65 -4 -3 7 24 26 59 43 81 54 86 13 6z m-1773
-43 c-9 -7 -20 -24 -25 -38 -14 -36 -11 -129 4 -172 7 -21 10 -38 5 -38 -17 0
-33 80 -29 148 3 69 23 112 51 112 6 0 3 -6 -6 -12z m524 -10 c-5 -13 -12 -32
-15 -42 -4 -10 -8 -17 -11 -14 -8 7 15 78 25 78 6 0 6 -9 1 -22z m1123 -184
c-46 -85 -84 -159 -84 -162 -1 -13 -40 -57 -40 -46 0 6 7 17 15 24 8 7 15 17
15 22 0 15 166 318 174 318 2 0 -34 -70 -80 -156z m-1165 69 c-21 -49 -39 -76
-39 -57 0 5 4 14 9 20 5 5 14 26 21 47 6 20 16 37 20 37 5 0 0 -21 -11 -47z
m2142 24 c-10 -9 -11 -8 -5 6 3 10 9 15 12 12 3 -3 0 -11 -7 -18z m-14 -35
c-10 -10 -17 -21 -17 -24 0 -2 26 -22 57 -44 183 -124 394 -322 586 -549 38
-44 77 -90 88 -101 10 -12 19 -25 19 -28 0 -4 11 -17 25 -30 14 -13 25 -28 25
-34 0 -5 7 -12 15 -16 8 -3 15 -12 15 -21 0 -8 3 -15 8 -15 4 0 18 -17 32 -38
14 -20 30 -43 37 -50 37 -38 293 -432 293 -449 0 -7 4 -13 8 -13 5 0 21 -24
37 -52 15 -29 36 -64 45 -78 10 -14 33 -54 52 -90 20 -36 50 -92 68 -125 59
-107 289 -571 295 -595 1 -3 9 -22 18 -42 9 -21 24 -53 32 -72 l15 -34 -88
-42 c-48 -23 -105 -49 -127 -58 -22 -8 -45 -19 -51 -23 -6 -5 -19 -10 -30 -12
-10 -2 -28 -8 -39 -14 -18 -9 -224 -82 -250 -87 -5 -2 -30 -8 -55 -15 -25 -8
-49 -14 -55 -16 -36 -8 -72 -17 -85 -22 -8 -4 -19 -5 -23 -4 -5 1 -26 -3 -48
-9 -22 -6 -52 -13 -67 -15 -15 -2 -36 -6 -47 -8 -11 -3 -45 -8 -76 -11 -31 -4
-67 -9 -80 -11 -131 -27 -620 -26 -809 1 -51 7 -160 24 -195 30 -35 6 -140 29
-205 47 -25 6 -47 12 -50 12 -83 16 -431 142 -515 187 -11 6 -28 15 -37 20
-10 4 -26 12 -35 16 -160 78 -438 245 -448 270 -2 7 10 28 28 46 32 33 149
161 223 246 21 24 46 51 54 60 8 10 35 41 60 70 25 30 54 64 65 76 11 12 27
31 35 41 61 75 106 129 110 133 3 3 21 25 40 50 19 25 37 47 40 50 3 3 23 28
45 55 22 28 43 52 47 53 5 2 8 10 8 17 0 7 4 15 9 17 4 2 63 77 129 168 67 91
125 170 130 175 19 25 102 146 102 151 0 2 17 30 39 62 21 31 82 127 136 212
54 85 105 166 114 180 18 28 22 35 74 122 20 35 42 70 47 78 15 22 93 161 109
193 8 15 19 27 24 27 6 0 3 -8 -6 -18z m-2164 -77 c-3 -9 -8 -14 -10 -11 -3 3
-2 9 2 15 9 16 15 13 8 -4z m1065 -235 c-11 -34 -25 -47 -25 -25 0 8 4 15 8
15 3 0 9 9 12 20 3 11 8 20 11 20 3 0 0 -14 -6 -30z m-28 -60 c0 -5 -4 -10
-10 -10 -5 0 -10 5 -10 10 0 6 5 10 10 10 6 0 10 -4 10 -10z m-60 -107 c-24
-43 -74 -139 -112 -213 -38 -74 -82 -157 -98 -185 -27 -49 -99 -187 -255 -490
-43 -82 -82 -156 -87 -162 -6 -7 -8 -13 -4 -13 3 0 -7 -21 -22 -48 -15 -26
-65 -124 -112 -217 -47 -94 -88 -171 -92 -173 -5 -2 -8 -10 -8 -18 0 -9 -5
-12 -10 -9 -10 6 -4 45 9 55 3 3 29 50 57 105 65 128 223 430 347 665 104 198
142 268 203 382 35 64 64 122 64 128 0 5 5 10 10 10 6 0 10 6 10 13 0 6 23 53
51 102 28 50 52 96 52 103 0 6 4 12 8 12 4 0 11 9 14 21 4 11 9 18 12 16 2 -3
-14 -41 -37 -84z"/>
<path d="M1724 14784 c-36 -17 -124 -98 -124 -114 0 -5 -5 -10 -10 -10 -6 0
-13 -8 -17 -17 -3 -10 -13 -26 -20 -35 -14 -15 -12 -16 33 -2 89 27 162 13
225 -44 35 -31 43 -31 47 0 21 137 7 209 -44 228 -34 13 -54 12 -90 -6z"/>
<path d="M14408 16934 c-2 -1 -32 -4 -68 -8 -116 -10 -298 -65 -344 -105 -10
-9 -19 -14 -20 -11 -3 11 -122 -78 -179 -134 -62 -61 -157 -193 -157 -219 0
-7 -4 -17 -9 -22 -4 -6 -16 -33 -25 -62 -52 -166 -36 -355 44 -518 24 -47 46
-85 51 -85 5 0 9 -5 9 -11 0 -26 128 -150 210 -204 141 -92 280 -140 439 -151
35 -3 68 -7 73 -10 4 -3 8 -2 8 3 0 4 26 8 58 7 31 0 87 5 122 13 36 7 74 15
85 17 47 9 239 97 255 117 3 3 13 10 22 15 71 38 251 246 235 271 -3 4 -86 8
-185 7 l-181 0 -45 -38 c-51 -42 -179 -104 -223 -109 -16 -2 -33 -6 -39 -9 -5
-4 -57 -5 -114 -4 -97 2 -182 18 -204 38 -6 4 -16 8 -24 8 -8 0 -34 14 -59 30
-24 17 -47 30 -50 30 -8 0 -104 101 -120 126 -13 20 -34 63 -50 104 l-10 25
286 0 c181 0 289 -3 293 -10 5 -7 8 -7 8 0 0 7 138 10 396 10 362 -1 396 1
405 16 5 9 7 66 5 126 -6 178 -72 335 -198 469 -113 119 -298 224 -438 250
-25 4 -47 8 -50 9 -40 11 -205 26 -212 19z m185 -304 c66 -19 150 -55 182 -80
82 -62 176 -186 187 -244 3 -19 -9 -20 -487 -20 -550 -2 -515 3 -565 -78 -31
-50 -36 -53 -58 -40 -13 9 -7 42 8 42 4 0 31 48 61 106 89 175 208 274 379
318 75 19 218 17 293 -4z"/>
<path d="M23077 16934 c-1 -1 -24 -4 -52 -8 -46 -6 -68 -9 -120 -20 -79 -16
-255 -97 -315 -144 -49 -38 -170 -155 -170 -165 0 -4 -8 -17 -19 -28 -22 -24
-91 -161 -91 -181 0 -8 -3 -18 -7 -22 -4 -3 -9 -17 -11 -29 -6 -38 -7 -42 -14
-52 -12 -20 0 -240 15 -297 16 -55 74 -188 87 -198 3 -3 17 -21 30 -40 23 -35
115 -129 159 -163 59 -47 220 -132 266 -142 5 -1 28 -7 50 -13 60 -17 96 -23
138 -25 20 -1 37 -6 37 -11 0 -4 6 -3 13 3 8 6 16 9 18 6 11 -10 137 -5 219
10 102 17 255 76 335 127 88 57 185 151 241 235 39 59 88 163 76 163 -4 0 -1
4 6 9 7 4 15 25 18 47 2 21 8 53 13 69 4 17 7 62 6 100 -1 61 -5 92 -20 176
-8 43 -62 160 -99 214 -35 51 -133 157 -177 190 -96 72 -217 130 -334 159 -73
18 -286 40 -298 30z m216 -306 c259 -71 419 -290 383 -523 -7 -52 -11 -64 -24
-98 -7 -16 -12 -33 -12 -38 0 -5 -4 -9 -10 -9 -5 0 -10 -6 -10 -14 0 -35 -122
-154 -199 -194 -106 -56 -155 -67 -286 -66 -86 0 -134 5 -170 18 -66 22 -155
67 -155 78 0 4 -6 8 -14 8 -21 0 -123 115 -150 168 -13 26 -29 65 -36 87 -18
54 -20 169 -4 222 7 24 11 43 9 43 -10 0 56 108 92 151 41 50 166 139 195 139
10 0 18 4 18 8 0 5 6 9 13 10 6 1 37 7 67 15 81 21 209 19 293 -5z"/>
<path d="M16189 16926 c-2 -2 -27 -7 -55 -10 -66 -7 -200 -49 -256 -81 -50
-28 -97 -76 -124 -126 -10 -19 -19 -36 -19 -39 -1 -6 -46 -104 -50 -108 -1 -1
-10 0 -19 4 -20 8 -17 19 29 119 37 80 51 127 50 170 l-1 30 -159 0 -160 0 0
-967 0 -968 160 0 160 0 0 618 c-1 706 0 718 70 827 103 162 279 253 480 249
78 -1 134 -9 165 -21 8 -3 23 -8 33 -9 25 -6 107 -49 142 -76 158 -122 229
-303 191 -488 -13 -63 -47 -160 -57 -160 -5 0 -9 -8 -9 -18 0 -11 -9 -27 -20
-37 -11 -10 -22 -26 -25 -36 -4 -11 -11 -19 -16 -19 -5 0 -21 -12 -36 -28 -44
-43 -117 -72 -193 -75 -71 -4 -178 44 -240 107 -42 42 -100 143 -100 173 0 11
-3 23 -7 27 -4 3 -8 23 -10 43 -1 19 -7 41 -12 47 -10 12 -296 15 -308 2 -6
-6 -6 -61 1 -97 2 -8 6 -32 10 -54 8 -42 11 -50 46 -130 72 -161 227 -302 397
-360 354 -121 720 61 858 429 13 36 27 78 30 93 11 53 17 88 19 115 1 15 5 30
8 34 4 3 3 16 -2 28 -4 13 -4 29 0 36 5 8 6 18 3 24 -4 5 -8 30 -10 54 -2 25
-8 64 -15 86 -6 23 -12 43 -13 46 -1 3 -9 22 -18 44 -9 21 -17 40 -17 42 0 8
-65 109 -72 112 -4 2 -8 8 -8 12 0 15 -81 99 -139 142 -31 24 -58 46 -61 49
-12 13 -169 87 -220 102 -52 16 -68 20 -130 33 -32 7 -266 15 -271 10z"/>
<path d="M17995 16921 c-3 -3 -15 -6 -27 -8 -54 -8 -147 -37 -202 -62 -86 -39
-131 -88 -183 -198 -25 -51 -48 -93 -51 -93 -27 1 -31 18 -13 55 22 49 44 98
46 105 1 3 7 17 13 32 6 14 14 51 17 82 l7 56 -161 0 c-146 0 -161 -2 -162
-17 -4 -89 0 -363 5 -372 4 -6 4 -11 -1 -11 -9 0 -9 -217 0 -226 3 -3 3 -12 0
-20 -9 -23 -9 -224 0 -224 5 0 5 -5 1 -11 -4 -7 -7 -240 -6 -518 0 -590 -1
-544 12 -536 6 3 10 3 10 -2 0 -4 67 -7 148 -5 l148 3 2 36 c2 20 5 40 8 45 3
4 1 8 -4 8 -5 0 -6 17 -2 40 4 23 3 40 -2 40 -5 0 -6 5 -3 11 4 5 6 46 6 90
-1 43 -2 87 -1 97 1 54 -2 107 -6 114 -3 4 -2 8 3 8 4 0 8 23 8 50 0 28 -3 50
-6 50 -3 0 -3 20 1 45 4 25 3 45 -2 45 -5 0 -7 4 -4 8 5 9 7 56 5 169 0 40 2
76 5 81 2 4 1 14 -3 21 -5 7 -5 30 -1 52 4 21 4 39 -1 39 -5 0 -5 10 0 23 5
12 5 31 1 42 -4 11 -5 24 -2 29 3 6 5 35 4 65 -1 59 11 122 33 176 28 67 117
172 181 213 40 27 51 33 64 38 8 3 24 10 35 15 120 53 283 59 419 15 47 -16
86 -32 86 -37 0 -5 5 -9 11 -9 22 0 116 -74 155 -124 73 -92 103 -177 102
-294 -3 -183 -86 -354 -210 -429 -53 -33 -127 -53 -164 -46 -10 2 -30 5 -44 8
-75 13 -125 40 -186 100 -59 59 -113 173 -116 247 -1 25 -7 42 -17 46 -13 6
-163 8 -284 3 l-29 -1 7 -57 c11 -91 12 -98 15 -103 1 -3 3 -9 4 -15 10 -52
66 -175 93 -203 7 -7 13 -17 13 -22 0 -19 144 -149 206 -186 348 -205 761 -78
949 292 90 178 115 422 59 575 -9 24 -17 49 -18 54 -3 13 -49 107 -58 120 -34
47 -106 133 -123 146 -11 9 -33 29 -48 43 -88 82 -236 151 -397 186 -79 17
-331 25 -345 11z"/>
<path d="M24889 16926 c-2 -2 -26 -6 -54 -9 -27 -3 -67 -11 -87 -17 -21 -6
-40 -11 -43 -11 -36 -1 -205 -96 -205 -115 0 -7 -6 -14 -13 -17 -13 -5 -26
-29 -80 -147 -11 -25 -21 -46 -22 -48 -4 -6 -35 11 -35 18 0 5 15 41 34 82 42
93 56 136 60 187 l3 41 -161 0 -162 0 0 -970 0 -970 160 2 161 3 1 640 c1 611
2 643 21 701 51 155 198 287 375 334 49 13 215 18 258 8 14 -3 39 -9 55 -13
38 -9 136 -55 153 -72 7 -7 17 -13 22 -13 20 0 126 -121 152 -171 41 -82 51
-127 51 -214 -1 -186 -92 -371 -216 -435 -47 -25 -121 -47 -152 -44 -129 11
-238 82 -300 196 -30 54 -55 137 -55 181 0 15 -3 27 -7 28 -5 0 -75 1 -156 2
-163 2 -166 1 -161 -56 11 -115 49 -221 113 -319 46 -72 173 -198 198 -198 7
0 13 -3 13 -7 0 -15 146 -78 200 -87 19 -3 49 -8 65 -12 39 -7 185 -11 185 -4
0 3 14 7 30 8 95 7 256 95 345 188 82 87 97 110 175 279 26 55 47 196 45 296
-2 57 -5 113 -8 124 -3 11 -9 34 -13 50 -4 17 -13 45 -21 62 -7 18 -14 36 -15
40 -3 12 -69 124 -87 146 -22 28 -112 117 -148 147 -66 54 -204 126 -280 145
-6 2 -27 8 -45 13 -18 6 -49 14 -68 18 -39 7 -275 16 -281 10z"/>
<path d="M12049 16880 c-1 -24 -2 -162 0 -200 l1 -35 300 3 300 3 0 -606 c0
-477 3 -605 13 -606 58 -5 285 -3 297 2 13 6 15 81 14 596 0 323 2 594 4 601
3 9 73 12 303 12 l299 0 1 23 c3 77 -1 210 -5 215 -3 3 -348 6 -766 6 -669 1
-760 -1 -761 -14z"/>
<path d="M19148 16892 c-13 -3 -15 -88 -14 -729 l1 -727 155 0 c177 -1 155
-11 260 114 30 36 60 70 65 76 6 7 24 29 42 50 17 22 39 49 50 60 10 12 36 43
58 70 22 27 47 55 55 64 8 9 33 38 55 65 21 27 48 59 60 71 11 12 34 39 50 60
17 21 35 42 40 48 6 6 39 45 73 86 35 41 81 95 102 120 22 25 49 59 62 75 12
17 25 32 28 35 6 5 31 58 36 75 19 63 39 105 50 105 26 0 25 -25 -3 -101 l-27
-74 -2 -490 c0 -269 3 -494 7 -500 6 -8 170 -11 295 -6 l21 1 0 725 0 725 -21
1 c-12 0 -84 1 -160 1 l-140 1 -35 -41 c-41 -46 -72 -83 -206 -242 -54 -63
-107 -126 -119 -140 -11 -14 -57 -68 -101 -120 -44 -52 -82 -97 -85 -100 -3
-3 -37 -43 -75 -90 -39 -46 -77 -92 -85 -100 -62 -65 -178 -220 -165 -220 3 0
-1 -13 -10 -30 -9 -16 -13 -30 -9 -30 4 0 2 -6 -4 -12 -6 -7 -11 -16 -11 -20
-5 -29 -14 -37 -30 -27 -15 10 -14 18 13 98 l29 86 1 488 c1 272 -3 491 -8
494 -9 6 -271 10 -298 5z"/>
<path d="M20743 16773 l1 -123 301 0 301 0 0 -607 0 -607 160 0 159 0 3 607 2
607 303 2 302 3 1 85 c0 47 4 91 8 98 4 7 2 12 -4 12 -6 0 -8 4 -5 10 21 34 4
35 -771 35 l-762 0 1 -122z"/>
<path d="M25987 16888 c-7 -4 -10 -224 -9 -720 0 -392 1 -717 1 -723 1 -6 61
-10 158 -10 92 0 162 4 168 10 6 6 23 26 39 45 56 68 111 134 131 155 11 12
36 41 55 65 19 25 42 52 50 61 20 21 56 63 110 129 25 30 47 57 50 60 3 3 44
50 89 105 84 100 94 112 128 150 10 12 52 61 93 110 41 50 77 92 80 95 9 9 49
103 61 148 12 43 16 46 43 36 13 -5 12 -15 -9 -72 -13 -37 -27 -80 -30 -97
-11 -54 -8 -987 3 -994 8 -4 285 -6 312 -2 7 1 4 1441 -4 1448 -3 3 -75 6
-161 6 -173 0 -153 8 -226 -83 -20 -25 -51 -60 -68 -77 -17 -18 -31 -37 -31
-42 0 -5 -3 -11 -7 -13 -7 -3 -134 -148 -228 -262 -22 -27 -48 -58 -58 -70
-11 -11 -35 -41 -55 -65 -21 -25 -45 -53 -54 -63 -10 -10 -18 -21 -18 -24 0
-3 -8 -13 -19 -22 -10 -10 -67 -74 -125 -145 -104 -124 -127 -161 -162 -260
-12 -34 -22 -47 -33 -45 -11 3 -15 12 -13 33 2 16 7 32 11 35 5 3 11 16 14 30
3 14 10 43 16 65 5 22 9 87 9 146 -1 58 2 111 5 116 4 6 4 13 1 16 -7 7 -8
212 -1 224 4 6 4 13 1 16 -3 3 -7 115 -7 248 l-2 242 -148 1 c-82 0 -154 -2
-160 -6z"/>
<path d="M28207 16894 c-1 -1 -29 -4 -62 -7 -60 -6 -83 -10 -140 -24 -16 -4
-33 -6 -37 -5 -5 1 -8 -2 -8 -8 0 -5 -8 -10 -17 -10 -43 -1 -171 -92 -229
-163 -44 -52 -75 -148 -79 -243 -5 -96 24 -222 69 -298 61 -104 166 -175 240
-163 25 4 39 1 48 -10 9 -12 10 -17 1 -20 -45 -16 -103 -68 -126 -116 -39 -80
-92 -196 -118 -257 -13 -30 -31 -71 -40 -90 -12 -25 -14 -37 -6 -42 6 -4 14
-5 17 -3 9 5 78 7 118 2 17 -2 32 0 32 5 0 4 10 4 23 0 20 -6 48 -7 72 -2 25
6 41 5 57 -2 14 -7 22 2 40 44 13 29 22 56 20 61 -1 4 1 7 6 7 4 0 13 15 21
33 18 44 34 81 69 157 16 36 39 86 51 112 11 26 21 52 21 57 0 6 21 11 48 12
54 0 356 0 422 0 l45 -1 0 -237 0 -238 53 -5 c28 -3 52 -2 52 2 0 4 6 5 14 2
19 -7 146 -10 146 -3 0 3 13 4 28 1 l29 -4 0 726 c0 514 -4 726 -11 727 -18 1
-868 4 -869 3z m558 -479 c0 -126 -1 -234 -2 -240 -2 -6 -107 -10 -291 -9
-248 1 -295 3 -341 19 -107 35 -190 154 -175 251 3 21 6 45 6 52 1 6 5 12 10
12 4 0 8 6 8 13 0 7 17 30 38 51 37 39 86 66 132 73 13 3 27 6 29 9 3 2 135 3
295 2 l290 -3 1 -230z"/>
<path d="M22886 14122 c-2 -1 -30 -4 -62 -6 -186 -13 -436 -91 -579 -180 -64
-40 -110 -71 -121 -81 -6 -5 -26 -21 -44 -35 -77 -57 -201 -196 -258 -285 -23
-38 -88 -170 -104 -215 -27 -71 -47 -160 -54 -235 -11 -112 -9 -160 11 -305 5
-36 38 -146 51 -172 8 -15 12 -28 9 -28 -19 0 130 -243 189 -308 66 -73 189
-182 205 -182 6 0 11 -4 11 -9 0 -9 67 -53 74 -48 2 1 12 -5 22 -14 46 -41
323 -157 338 -142 3 4 6 1 6 -4 0 -6 8 -10 18 -8 9 1 27 -2 40 -6 23 -9 45
-13 147 -26 103 -14 386 -6 436 11 8 3 25 8 39 10 61 12 123 28 135 35 6 3 16
6 23 7 8 2 21 6 30 10 9 4 22 8 29 10 23 4 198 94 249 126 82 53 175 132 236
199 63 68 151 192 162 225 l6 21 -279 -1 -279 -1 -37 -30 c-117 -94 -266 -170
-375 -190 -14 -3 -36 -7 -50 -10 -55 -13 -234 -11 -313 2 -80 14 -259 77 -265
94 -2 5 -8 9 -14 9 -21 0 -136 90 -190 149 -60 65 -122 159 -133 204 -4 15
-11 30 -16 33 -5 3 -9 14 -9 25 0 19 17 19 1040 19 l1040 0 1 33 c0 17 2 41 4
52 10 50 4 215 -10 275 -3 14 -8 36 -11 50 -8 35 -10 43 -16 60 -3 8 -16 44
-28 79 -61 176 -188 349 -358 484 -160 129 -371 230 -547 263 -11 2 -42 8 -70
14 -75 16 -319 32 -329 22z m224 -435 c8 -2 33 -8 55 -12 49 -11 46 -10 70
-19 80 -30 163 -70 212 -103 68 -45 192 -166 213 -209 8 -16 20 -36 26 -44 18
-23 63 -139 56 -144 -4 -2 -331 -4 -728 -4 -666 0 -724 -1 -758 -17 -20 -10
-45 -29 -56 -44 -11 -14 -24 -31 -30 -38 -5 -7 -10 -17 -10 -23 0 -5 -4 -10
-9 -10 -5 0 -14 -13 -21 -30 -14 -35 -12 -34 -51 -15 l-29 16 42 62 c24 34 45
64 48 67 7 6 70 138 70 145 0 16 78 124 123 173 109 115 299 220 434 239 18 2
45 8 60 12 28 8 254 6 283 -2z"/>
<path d="M27776 14123 c-1 -1 -33 -5 -71 -8 -39 -3 -81 -7 -95 -9 -39 -7 -83
-16 -102 -22 -10 -3 -29 -7 -43 -10 -13 -2 -62 -18 -107 -35 -46 -16 -98 -35
-115 -41 -18 -6 -33 -15 -33 -20 0 -4 -5 -8 -11 -8 -31 0 -240 -145 -314 -217
-44 -43 -102 -110 -125 -143 -13 -19 -27 -37 -30 -40 -6 -5 -33 -50 -77 -127
-13 -24 -20 -43 -16 -43 4 0 3 -4 -3 -8 -12 -8 -46 -103 -64 -177 -17 -71 -24
-130 -24 -207 -1 -38 -5 -68 -9 -68 -5 0 -5 -5 -1 -12 4 -6 9 -37 10 -68 2
-31 5 -68 8 -81 28 -150 68 -269 130 -389 27 -52 52 -97 55 -100 3 -3 20 -25
36 -49 36 -53 154 -175 210 -216 52 -39 175 -115 185 -115 5 0 30 -9 57 -21
56 -24 139 -47 203 -57 59 -8 235 -8 285 1 22 4 49 9 60 11 17 2 77 16 95 21
62 18 205 87 272 132 84 56 209 176 258 248 18 28 37 52 41 55 4 3 13 17 18
30 6 14 15 32 21 40 5 8 15 31 23 50 8 19 20 49 27 65 7 17 14 35 16 41 1 6 9
36 17 65 17 59 29 138 32 212 l2 47 -241 -2 -240 -3 -2 -35 c-3 -58 -13 -107
-35 -168 -11 -31 -22 -61 -23 -67 -6 -24 -30 -65 -38 -65 -4 0 -8 -7 -8 -15 0
-13 -109 -129 -152 -162 -25 -19 -111 -60 -143 -68 -16 -4 -39 -9 -50 -12 -48
-12 -145 -9 -200 6 -64 17 -165 66 -165 79 0 5 -11 14 -24 22 -24 12 -126 130
-126 145 0 4 -8 19 -19 33 -39 57 -83 190 -99 302 -8 57 -8 192 1 245 12 79
64 205 111 269 40 54 153 163 207 199 64 42 175 95 219 103 17 4 33 11 36 15
3 5 8 7 12 5 4 -2 39 2 77 9 64 12 229 13 295 2 110 -19 210 -56 305 -111 75
-44 245 -204 245 -230 0 -9 4 -16 8 -16 14 0 72 -131 91 -204 16 -62 18 -125
18 -653 0 -321 3 -586 6 -590 4 -3 30 -5 59 -4 29 0 60 1 68 1 8 0 88 0 178
-1 89 -1 166 2 170 5 10 10 9 2167 -1 2173 -5 3 -104 5 -220 5 -281 -1 -267 0
-262 -14 2 -7 6 -38 9 -70 7 -70 77 -255 137 -362 9 -16 8 -22 -7 -33 -21 -16
-54 -17 -54 -2 0 10 -24 66 -63 149 -12 25 -22 47 -22 50 -1 3 -10 19 -20 36
-68 106 -169 178 -320 227 -92 30 -150 46 -185 52 -19 3 -46 7 -60 10 -81 14
-285 26 -294 18z"/>
<path d="M10023 14062 l-33 -3 0 -1090 c0 -599 3 -1088 8 -1088 4 1 9 1 12 0
7 -3 522 -3 535 -1 6 1 15 1 20 0 8 -2 238 -1 305 0 8 1 58 0 110 0 173 -2
283 11 442 55 32 8 79 25 105 37 27 12 50 22 54 22 3 1 41 22 85 48 80 46 234
187 234 214 0 7 4 14 8 16 12 5 53 97 68 152 12 45 12 173 1 237 -6 34 -43
113 -76 163 -44 68 -192 206 -220 206 -5 0 -11 3 -13 8 -3 7 -49 30 -138 70
-45 20 -172 57 -226 66 -16 3 -45 8 -64 11 -66 12 -166 16 -465 18 l-300 2 0
225 0 225 133 2 c74 1 135 3 137 5 2 2 74 1 160 -2 86 -3 158 -3 160 0 2 3 74
3 160 0 86 -3 158 -3 160 0 2 3 74 3 160 0 86 -3 159 -2 161 2 2 3 12 4 22 2
16 -5 17 10 17 195 l1 201 -26 1 c-108 2 -1672 3 -1697 1z m602 -1262 c11 0
61 2 110 3 50 2 96 -1 103 -6 6 -5 12 -6 12 -1 0 5 29 9 65 9 36 0 65 -4 65
-9 0 -5 6 -3 13 3 8 6 17 8 20 4 4 -3 33 -7 64 -9 264 -10 428 -112 425 -262
-2 -101 -100 -185 -267 -228 -59 -15 -123 -18 -416 -21 l-346 -3 0 258 c0 141
1 259 2 262 2 3 32 4 67 2 34 -1 72 -2 83 -2z"/>
<path d="M11963 14045 c6 -11 12 -22 12 -25 1 -3 244 -491 540 -1085 296 -594
538 -1085 538 -1092 0 -16 -75 -167 -85 -171 -5 -2 -8 -9 -8 -15 0 -16 -82
-180 -95 -189 -5 -4 -6 -8 -2 -8 5 0 -1 -13 -12 -29 -12 -16 -21 -35 -21 -43
0 -8 -5 -19 -12 -26 -8 -8 -9 -15 -2 -22 6 -6 91 -50 190 -99 l179 -89 80 162
c44 88 82 163 85 166 3 3 32 61 65 130 33 69 65 132 72 141 7 8 13 20 13 24 0
13 63 139 73 146 5 3 8 9 7 13 0 3 186 382 415 841 229 459 416 838 416 842 1
5 5 13 11 20 8 10 152 296 199 394 l16 35 -235 0 -236 -1 -206 -412 c-114
-227 -204 -413 -201 -413 3 0 2 -4 -4 -8 -11 -8 -117 -220 -113 -225 2 -2 -3
-11 -10 -19 -14 -17 -112 -215 -111 -225 0 -3 -3 -9 -8 -12 -9 -7 -65 -120
-69 -139 -1 -8 -10 -22 -18 -31 -9 -10 -16 -23 -16 -30 0 -7 -8 -25 -19 -39
-32 -46 -62 -161 -63 -244 l-1 -78 -34 0 -33 0 0 70 c0 84 2 67 -20 144 -22
77 -806 1655 -823 1658 -7 0 -114 2 -239 2 -225 2 -226 2 -215 -19z"/>
<path d="M14664 14060 c-11 -4 -1 -24 43 -85 32 -44 66 -92 75 -106 9 -14 23
-33 30 -41 7 -7 18 -21 23 -31 6 -9 96 -137 200 -283 105 -147 205 -288 222
-313 18 -25 57 -80 86 -121 57 -79 57 -82 19 -129 -12 -15 -168 -236 -194
-275 -7 -10 -22 -31 -33 -45 -22 -28 -94 -132 -110 -159 -5 -9 -14 -21 -20
-28 -5 -6 -16 -20 -23 -30 -7 -11 -36 -52 -65 -93 -29 -40 -59 -83 -67 -96
-50 -74 -76 -111 -81 -115 -3 -3 -37 -50 -74 -105 -38 -55 -73 -101 -77 -103
-15 -7 -8 -23 10 -21 9 1 19 0 22 -1 12 -4 368 -3 376 2 5 3 17 2 28 -1 50
-19 68 -4 176 150 58 83 110 155 115 162 6 7 26 35 44 62 19 28 38 52 41 55 3
3 16 22 29 43 13 21 28 43 34 50 24 24 67 97 67 111 0 8 5 18 10 21 6 4 8 10
5 15 -3 5 -1 11 4 14 5 4 13 32 16 64 4 31 8 66 9 77 2 14 12 20 34 22 31 3
32 1 33 -35 0 -33 4 -57 14 -102 2 -8 4 -16 5 -17 2 -2 3 -7 4 -12 0 -5 4 -13
9 -17 4 -4 7 -16 7 -26 0 -10 5 -18 10 -18 6 0 10 -5 10 -11 0 -9 41 -73 73
-114 15 -19 260 -369 299 -427 21 -31 42 -59 48 -63 14 -9 224 -10 238 -1 7 4
17 4 24 0 9 -6 110 -8 236 -5 23 1 23 2 -10 48 -18 26 -37 53 -43 59 -13 15
-207 290 -220 313 -5 9 -12 18 -15 21 -6 5 -62 84 -159 225 -30 44 -59 82 -63
83 -4 2 -8 10 -8 17 0 7 -4 15 -8 17 -5 2 -30 35 -57 73 -56 81 -121 173 -163
230 l-30 41 24 29 c14 17 29 35 34 42 6 7 15 24 22 38 6 14 15 25 19 25 4 0
18 17 30 38 13 20 27 42 32 47 8 9 314 440 389 548 18 26 40 56 48 67 8 11 25
34 38 52 13 18 43 61 67 95 25 35 45 66 45 70 0 6 -385 9 -500 4 -9 -1 -45
-43 -80 -93 -35 -51 -67 -94 -72 -96 -4 -2 -8 -10 -8 -18 0 -8 -4 -14 -10 -14
-5 0 -10 -6 -10 -14 0 -8 -4 -16 -8 -18 -4 -1 -28 -32 -52 -68 -25 -36 -47
-67 -50 -70 -11 -11 -70 -99 -97 -145 -38 -65 -61 -143 -62 -217 -1 -35 -3
-36 -33 -34 -29 2 -32 5 -35 45 -2 24 -8 62 -13 85 -6 22 -12 48 -14 56 -7 28
-46 93 -119 195 -39 55 -73 102 -76 105 -3 3 -10 12 -16 21 -23 36 -88 129
-142 203 l-58 79 -243 1 c-133 0 -249 -1 -258 -4z"/>
<path d="M16650 14055 c0 -6 47 -105 104 -218 57 -114 102 -207 99 -207 -2 0
5 -13 16 -29 12 -16 21 -36 21 -44 0 -9 3 -17 8 -19 4 -1 30 -50 59 -108 28
-58 217 -438 420 -846 l370 -740 -124 -244 c-68 -134 -123 -248 -123 -254 1
-11 207 -116 228 -116 6 0 12 -3 14 -7 4 -11 90 -53 106 -53 6 0 12 -5 12 -11
0 -8 5 -8 15 1 8 7 15 21 15 30 0 10 3 20 8 22 8 3 152 289 152 301 0 5 5 13
10 20 15 18 340 674 340 686 0 6 4 11 9 11 4 0 16 21 26 48 10 26 22 53 27 59
9 11 180 351 183 363 1 3 41 84 90 180 50 96 94 186 100 200 23 55 140 285
148 288 4 2 7 9 7 15 0 14 122 260 133 268 5 3 8 10 8 15 0 5 44 97 98 205
l98 195 -236 0 -236 -1 -260 -520 c-143 -286 -264 -523 -268 -526 -5 -3 -8
-10 -8 -15 2 -12 -61 -137 -72 -145 -5 -3 -8 -9 -8 -13 1 -3 -43 -97 -98 -209
-116 -236 -123 -256 -127 -356 -1 -42 -3 -79 -3 -83 -1 -5 -14 -8 -31 -8 -16
0 -30 3 -31 8 0 4 -2 39 -3 77 -2 39 -4 70 -5 70 -1 0 -4 12 -6 27 -6 47 -15
68 -93 228 -42 85 -76 157 -77 160 0 3 -5 12 -10 20 -15 25 -179 355 -178 360
0 3 -7 16 -17 30 -9 14 -21 36 -25 50 -4 14 -18 41 -29 60 -20 32 -49 92 -47
97 0 2 -14 29 -32 60 -18 32 -39 74 -47 93 -7 19 -18 42 -25 50 -6 8 -20 35
-30 60 -11 25 -22 47 -25 50 -5 5 -120 238 -119 243 0 1 -15 31 -34 67 l-35
65 -231 1 c-170 0 -231 -2 -231 -11z"/>
<path d="M19409 14060 l-45 -5 0 -273 c1 -151 -2 -276 -7 -279 -4 -2 -4 -10 0
-16 4 -6 8 -131 9 -277 1 -160 7 -283 14 -310 29 -116 136 -260 250 -337 47
-32 164 -93 177 -93 5 0 22 -4 38 -10 34 -10 69 -18 135 -27 25 -4 262 -7 528
-7 265 0 483 -3 483 -6 1 -3 3 -124 4 -270 1 -146 3 -268 4 -272 0 -4 12 -3
25 2 13 5 27 6 30 3 8 -8 361 -7 374 1 6 3 12 2 14 -3 2 -5 13 -5 27 0 19 8
21 12 11 24 -6 8 -8 20 -4 26 10 17 11 119 1 119 -5 0 -5 5 -2 11 11 16 12 69
3 75 -5 3 -5 10 -2 16 4 6 6 189 5 407 -1 218 -2 401 -1 406 0 6 1 27 3 48 1
21 0 40 -4 43 -4 2 -4 17 0 32 4 15 6 36 5 47 -4 36 -4 79 -2 138 2 31 -1 57
-5 57 -5 0 -5 5 -2 11 11 16 12 69 3 75 -5 3 -5 10 -2 16 8 12 9 617 1 624 -4
5 -328 8 -452 5 l-30 -1 0 -602 0 -603 -495 0 c-495 0 -495 0 -537 23 -56 29
-100 74 -110 109 -4 15 -7 263 -8 550 0 458 -2 523 -15 524 -98 3 -386 3 -421
-1z"/>
<path d="M24272 14062 l-22 -3 2 -181 3 -181 448 1 c411 0 447 -1 448 -16 1
-9 2 -416 3 -904 0 -487 4 -890 8 -894 10 -9 171 -9 186 0 7 4 17 4 23 0 19
-11 265 -10 267 1 1 6 2 416 3 911 l1 902 450 0 c247 0 452 2 455 5 6 6 4 349
-2 355 -5 5 -2239 9 -2273 4z"/>
</g>
</svg>
