<svg width="201" height="319" fill="none" xmlns="http://www.w3.org/2000/svg"><g clip-path="url(#clip0_580_87702)"><path d="M182.524 127.189l-17.999-18.88m17.999 24.002h-17.999m23.095-5.122v-18.88m.03 23.019a.992.992 0 00-.984.983c0 .536.447.983.984.983a.992.992 0 00.983-.983.992.992 0 00-.983-.983zm-27.059 4.914v-31.864h31.886" stroke="#CCD6EC" stroke-miterlimit="22.926" stroke-linecap="round" stroke-linejoin="round"/><path d="M192.477 103.187h-33.078v33.055h33.078v-33.055zm-1.132-12.984v1.578m-2.98-1.578v-9.857m0 11.435v9.827h-10.102m0 0V80.346h10.102m-10.341-.983a.77.77 0 00-.775.774m-.029 21.68c0 .446.357.774.775.774" stroke="#CCD6EC" stroke-miterlimit="22.926" stroke-linecap="round" stroke-linejoin="round"/><path d="M182.584 90.203a.77.77 0 00-.775.774.77.77 0 00.775.774m8.761-1.548h-8.761m8.761 1.578h-8.761m6.258-.03c.357.745 1.192 1.132 2.026.953.805-.178 1.371-.923 1.371-1.727 0-.834-.566-1.549-1.371-1.757a1.84 1.84 0 00-2.026.953m3.754-10.81h-14.572m-.804.804v21.65" stroke="#CCD6EC" stroke-miterlimit="22.926" stroke-linecap="round" stroke-linejoin="round"/><path d="M178.024 102.591h14.572V79.363m-51.345-7.623V54.436m5.096 11.05a.77.77 0 00.775.774m2.861 0a.768.768 0 00.774-.774m-3.605-3.306a.77.77 0 00-.775.774m4.38 0a.769.769 0 00-.774-.774m-3.636.774v2.532m.775.774h2.861m.774-.774v-2.532m-.774-.774h-2.861" stroke="#CCD6EC" stroke-miterlimit="22.926" stroke-linecap="round" stroke-linejoin="round"/><path d="M153.857 62.18c0-1.578-2.384-2.829-5.305-2.829-2.95 0-5.304 1.28-5.304 2.829m-.03 8.19v-8.19m.03 8.19c0 1.816 2.384 3.305 5.304 3.305 2.95 0 5.305-1.49 5.305-3.306m0 .001v-8.19" stroke="#CCD6EC" stroke-miterlimit="22.926" stroke-linecap="round" stroke-linejoin="round"/><path d="M141.281 71.74c0 2.62 3.248 4.734 7.301 4.734 4.023 0 7.301-2.114 7.301-4.735m-.06.001V54.436m-21.068.001h27.565m-15.228 68.583l-2.414 3.603 2.414 3.574m-2.414-3.574h-4.321" stroke="#CCD6EC" stroke-miterlimit="22.926" stroke-linecap="round" stroke-linejoin="round"/><path d="M149.029 126.593a4.323 4.323 0 00-4.321-4.318 4.323 4.323 0 00-4.321 4.318 4.322 4.322 0 004.321 4.318c2.384.03 4.321-1.905 4.321-4.318z" stroke="#CCD6EC" stroke-miterlimit="22.926" stroke-linecap="round" stroke-linejoin="round"/><path d="M155.704 116.766h-22.052v19.684h22.052v-19.684zm20.324-62.329h-42.733m-64.219 57.356v-5.301m-7.271 1.102l14.542 3.097m-7.271-4.199v-5.301m-7.271 1.102l14.542 3.068m-7.271 8.785V66.945m0 34.246v-5.33m-7.271 1.102l14.542 3.097m-7.271-4.2v-5.3m-7.271 1.102l14.542 3.097m-7.271-4.199v-5.33m-7.271 1.131l14.542 3.067m-7.271-4.198v-5.301m-7.271 1.101l14.542 3.098m-7.271-4.199v-5.33m-7.271 1.131l14.542 3.067m-7.271-4.199v-5.3M61.805 70.4l14.542 3.096m-6.884-6.551h11.444v47.201H59.63m10.161-67.868l11.116 20.667V46.278H69.79zm0 0v20.667l11.116-20.667m-68.153 78.38v-6.105m10.222.476a1.27 1.27 0 001.281-1.28c0-.715-.566-1.281-1.281-1.281s-1.282.566-1.282 1.281.596 1.28 1.282 1.28zm-4.411-.476a.769.769 0 00.775-.774.79.79 0 00-.775-.775m-7.897 1.549h7.897m-7.897-1.578a.769.769 0 00-.774.774c0 .417.357.774.774.774m0-1.548h7.897" stroke="#CCD6EC" stroke-miterlimit="22.926" stroke-linecap="round" stroke-linejoin="round"/><path d="M12.277 116.975a1.782 1.782 0 00-1.996-.953c-.805.178-1.37.923-1.37 1.727 0 .834.565 1.548 1.37 1.757a1.783 1.783 0 001.996-.953m.477 6.075c0 1.072.894 1.965 1.967 1.965m0-17.689a1.984 1.984 0 00-1.967 1.966m16.152 15.753a1.983 1.983 0 001.967-1.965m0-13.788a1.984 1.984 0 00-1.967-1.966m-14.185 17.719h14.155m1.997-1.965V110.87m-1.997-1.966H14.721m-1.967 1.966v6.105" stroke="#CCD6EC" stroke-miterlimit="22.926" stroke-linecap="round" stroke-linejoin="round"/><path d="M32.243 105.956H8.613v23.615h23.63v-23.615zm8.553-8.279l7.122-7.087m0 7.087l-7.122-7.087m-1.46 3.543h10.042m-5.006 5.033V89.131m11.801-6.791H32.54v23.616h23.632V82.341zm-23.93 47.231v28.38m-13.737-17.182a3.408 3.408 0 00-3.427-3.425c-1.878 0-3.427 1.548-3.427 3.425a3.407 3.407 0 003.427 3.424c1.877 0 3.427-1.429 3.427-3.424zm1.162 10.422c0-2.471-1.997-4.615-4.59-4.615-2.473 0-4.588 2.025-4.588 4.615 0 2.472 1.996 4.616 4.589 4.616 2.473 0 4.589-2.144 4.589-4.616zm9.089 0a3.407 3.407 0 00-3.427-3.424c-1.877 0-3.427 1.548-3.427 3.424a3.408 3.408 0 003.427 3.425 3.426 3.426 0 003.427-3.425zm1.192-10.422c0-2.472-1.997-4.616-4.59-4.616-2.473 0-4.589 2.025-4.589 4.616 0 2.471 1.997 4.615 4.59 4.615 2.592 0 4.589-2.025 4.589-4.615zM9.894 155.45v-18.821m19.697 20.012H10.966m19.668-20.012v18.821m-19.668-20.012h18.625m1.043 20.012c0 .715-.477 1.191-1.073 1.191M9.894 136.629c0-.715.476-1.191 1.072-1.191m0 21.203c-.596 0-1.072-.595-1.072-1.191m19.697-20.012c.596 0 1.073.596 1.073 1.191" stroke="#CCD6EC" stroke-miterlimit="22.926" stroke-linecap="round" stroke-linejoin="round"/><path d="M32.243 134.009H8.314v23.942h23.93v-23.942zm41.035 24.21H8.523v20.697h64.755v-20.697zm-22.082 29.304c1.669 1.191 3.695 1.697 5.722 1.697 2.026 0 4.023-.685 5.721-1.697m-15.972-8.577c0 .685-.18 1.34-.18 2.025 0 2.859.507 5.718 1.67 8.428m17.671-.03c1.013-2.68 1.669-5.539 1.669-8.428 0-.685 0-1.34-.18-2.025m-17.611.03v1.013c0 2.531.507 5.211 1.52 7.564m11.592 0c1.013-2.353 1.52-4.884 1.52-7.564v-1.013M49.2 190.56c2.175 1.519 4.887 2.353 7.747 2.353 2.682 0 5.394-.834 7.748-2.353m-13.499-3.037l-2.682 2.71m14.304-2.71l2.682 2.71m-14.304-2.71l-2.682 2.71m14.304-2.71l2.682 2.71m-.834.327c.685 0 1.162-.506 1.162-1.191m-17.642 0c-.119.685.328 1.191 1.014 1.191m-25.777-3.037c1.669 1.191 3.695 1.697 5.721 1.697 2.027 0 4.023-.685 5.722-1.697m-16.003-8.577c0 .685-.178 1.34-.178 2.025 0 2.859.506 5.718 1.668 8.428m17.701-.03c1.014-2.68 1.67-5.539 1.67-8.428 0-.685 0-1.34-.18-2.025m-17.641.03v1.013c0 2.531.507 5.211 1.52 7.564m11.592 0c1.013-2.353 1.52-4.884 1.52-7.564v-1.013M21.396 190.56c2.176 1.519 4.887 2.353 7.748 2.353 2.682 0 5.394-.834 7.748-2.353m-13.469-3.037l-2.712 2.71m14.304-2.71l2.682 2.71m-14.274-2.71l-2.712 2.71m14.304-2.71l2.682 2.71m-.835.327c.686 0 1.163-.506 1.163-1.191m-17.642 0c-.12.685.328 1.191 1.013 1.191" stroke="#CCD6EC" stroke-miterlimit="22.926" stroke-linecap="round" stroke-linejoin="round"/><path d="M50.779 168.642c0-2.561-2.205-4.764-4.768-4.764-2.563 0-4.768 2.203-4.768 4.764 0 2.561 2.205 4.765 4.768 4.765 2.682.03 4.768-2.204 4.768-4.765z" stroke="#CCD6EC" stroke-miterlimit="22.926" stroke-linecap="round" stroke-linejoin="round"/><path d="M41.243 169.119c-.596.595-1.4.923-2.324.923a3.14 3.14 0 01-3.16-3.157 3.14 3.14 0 013.16-3.156c1.4 0 2.562.923 3.04 2.203M18.565 272.99v-22.811m27.774-39.13v4.139m0 1.846v31.031m-20.115 34.306h-6.497m25.45 0H30.008m15.169-66.498H24.674m-7.182 33.234h-6.496m7.569-1.042v-15.098M8.374 287.195v-4.169m2.622-33.919h6.496m-7.569-32.073v31.031m14.751-32.192h20.98m.685 34.306v31.031m0 1.816v4.169m-27.774-5.985v-1.162m-9.416 2.323h17.075m-7.659-1.161v-1.162m-7.569 2.323h6.496m-6.496-33.264h6.496m-7.569 1.072v31.031m20.085 1.161h15.645M9.149 210.364h36.504m-37.279 4.824v-4.139m11.204 4.824H9.148m8.344 33.234h27.685m-27.685-33.234h-6.496m-1.847 66.498c-.567 0-.775.387-.775.685m37.279-67.183c.477 0 .686-.387.686-.685m-37.965 0c0 .476.387.685.685.685m9.506 34.306c0-.536-.477-1.072-1.162-1.072m-6.407-33.234c-.536 0-1.073.477-1.073 1.161m0 64.176c0 .595.477 1.161 1.162 1.161m35.254-32.192c0-.536-.477-1.072-1.162-1.072m-34.092 0c-.596 0-1.162.447-1.162 1.072m35.254-1.072c.596 0 1.162-.476 1.162-1.161M8.374 287.195c0 .477.387.685.685.685h36.594c.477 0 .686-.387.686-.685m-36.416-39.13c0 .536.477 1.072 1.162 1.072m35.254-38.088c0-.477-.388-.685-.686-.685m-.476 72.007c.596 0 1.162-.476 1.162-1.161m0 1.816c0-.476-.388-.685-.686-.685m.686-65.307c0-.595-.477-1.161-1.162-1.161m-27.893 66.498c.655 0 1.281-.476 1.281-1.161m-1.162-32.103c.596 0 1.162-.447 1.162-1.072m-9.416-37.671c-.567 0-.775.387-.775.685m11.949 54.348a39.07 39.07 0 0014.185 4.556m-11.771-57.266c1.64 3.186 3.874 5.926 6.497 8.338m.119 0c-3.219 1.37-6.11 3.693-8.344 6.492m13.469 42.525c-2.711 4.169-4.26 9.113-4.559 14.146m-1.847-47.559a39.07 39.07 0 00-14.185-4.556m.029 0c1.759-3.008 3.01-6.105 3.785-9.5m15.049 0c-2.712 4.17-4.261 9.113-4.56 14.146m1.729 47.379a39.07 39.07 0 00-14.185-4.556m-.089 0c2.533-4.259 4.082-9.113 4.56-14.145m.775-37.88c-1.55-3.187-3.875-5.926-6.497-8.338m13.589 2.531c1.46.387 3.099.685 4.559.863m-18.148-3.395c3.218-1.548 6.02-3.782 8.344-6.491m47.709 17.391l7.122 1.638m0 0l-.476 2.203m-7.361 5.003l-1.281-.208m0 0l1.996-8.636m1.639 2.114l6.407 2.204m0 0l-2.801 8.368m0 0l-6.526-2.204m0 0l2.92-8.368m3.487 26.415c8.755 0 15.853-7.093 15.853-15.843s-7.097-15.843-15.853-15.843-15.854 7.093-15.854 15.843 7.098 15.843 15.854 15.843z" stroke="#CCD6EC" stroke-miterlimit="22.926" stroke-linecap="round" stroke-linejoin="round"/><path d="M77.54 248.243c0-2.203-1.878-4.079-4.083-4.079-2.206 0-4.083 1.876-4.083 4.079 0 2.204 1.877 4.08 4.083 4.08 2.324 0 4.082-1.757 4.082-4.08z" stroke="#CCD6EC" stroke-miterlimit="22.926" stroke-linecap="round" stroke-linejoin="round"/><path d="M77.54 247.559c.476-.596 1.28-.924 2.085-.924 1.52 0 2.682 1.162 2.682 2.681 0 1.518-1.162 2.68-2.682 2.68-1.162 0-2.086-.685-2.563-1.757m10.728 2.769c2.92 1.757 4.768 5.003 4.768 8.368 0 5.48-4.44 9.887-9.923 9.887s-9.923-4.437-9.923-9.887c0-.982.089-1.935.387-2.918m40.617-38.416v58.16m-1.251 0h16.926v-58.16h-16.926m0 0v58.16" stroke="#CCD6EC" stroke-miterlimit="22.926" stroke-linecap="round" stroke-linejoin="round"/><path d="M122.03 259.947h3.278v-21.739h-3.278m-2.413 0h-3.1m0 0v21.739m0 0h3.1m0-36.212h1.162m1.251 48.362l-1.251 1.251m0-48.571l1.251 1.251m-1.251 48.481v-50.774m-1.162 0v50.774m0 0h1.162m1.251-48.481v46.069" stroke="#CCD6EC" stroke-miterlimit="22.926" stroke-linecap="round" stroke-linejoin="round"/><path d="M27.803 309.054H23.75v3.93h4.053v-3.93zm33.436 0h-4.053v3.93h4.053v-3.93zm33.435 0h-4.053v3.93h4.053v-3.93zm-4.053 0H61.21m29.411 3.93H61.21m-4.024-3.93H27.773m0 3.93h29.413" stroke="#141414" stroke-width="1.5" stroke-miterlimit="22.926" stroke-linecap="round" stroke-linejoin="round"/><path d="M27.803 309.054H23.75v3.93h4.053v-3.93zm33.436 0h-4.053v3.93h4.053v-3.93zm33.435 0h-4.053v3.93h4.053v-3.93z" fill="#141414" stroke="#141414" stroke-miterlimit="10"/><path d="M132.49 81.328h-2.95v.775h2.95v-.775zm0 30.703h-2.95v.804h2.95v-.804zm-28.34-27.963c0 13.907 11.295 25.194 25.211 25.194" stroke="#141414" stroke-width="1.5" stroke-miterlimit="22.926" stroke-linecap="round" stroke-linejoin="round"/><path d="M129.361 84.068h-25.062v1.966h25.062v-1.966zm2.146 25.581v.595h-1.967v1.787m2.95 0v-2.382h-.983m0-25.759v.565h.983v-2.352m-2.95 0v1.786h1.967m-2.861-46.069h-.805v2.948h.805V37.82zm-42.912 0h-.804v2.948h.804V37.82zm77.003-6.7C159.37 12.03 141.966-1.31 122.626.357c-19.34 1.698-34.15 17.868-34.15 37.255" stroke="#141414" stroke-width="1.5" stroke-miterlimit="22.926" stroke-linecap="round" stroke-linejoin="round"/><path d="M162.588 31.15l-.328-1.936-36.713 6.462.328 1.936 36.713-6.463zm-36.505 8.636h-.596v.982h2.354m0-2.948h-1.758v1.966m-38.024 0h-.567V37.82h-1.788m0 2.948h2.355v-.982M23.81 303.098h70.864" stroke="#141414" stroke-width="1.5" stroke-miterlimit="22.926" stroke-linecap="round" stroke-linejoin="round"/><path d="M144.082 98.213c0 1.251-1.013 2.025-2.473 2.025-1.341 0-2.503-.655-2.682-2.084h.834c.209.923.954 1.31 1.848 1.31 1.013 0 1.639-.506 1.639-1.31 0-.685-.417-1.221-1.52-1.221h-.954v-.715h.716c1.043 0 1.549-.387 1.549-1.072 0-.774-.626-1.25-1.52-1.25-.834 0-1.4.297-1.639 1.22h-.834c.268-1.4 1.252-1.995 2.503-1.995 1.311 0 2.325.774 2.325 1.906 0 .655-.358 1.221-.984 1.46.745.267 1.192.893 1.192 1.726zm1.55 3.634h-.566l.655-1.609a.51.51 0 01-.387-.506c0-.327.238-.566.566-.566.238 0 .566.12.566.566 0 .15-.03.358-.834 2.115zm7.271-3.634c0 1.251-1.013 2.025-2.473 2.025-1.341 0-2.474-.655-2.682-2.084h.834c.209.923.954 1.31 1.848 1.31 1.013 0 1.639-.506 1.639-1.31 0-.685-.418-1.221-1.52-1.221h-.954v-.715h.715c1.043 0 1.55-.387 1.55-1.072 0-.774-.626-1.25-1.52-1.25-.834 0-1.4.297-1.639 1.22h-.834c.268-1.4 1.251-1.995 2.473-1.995 1.311 0 2.325.774 2.325 1.906 0 .655-.358 1.221-.984 1.46.775.267 1.222.893 1.222 1.726zm-54.265 44.849h-1.014v1.638h-.804v-1.638h-3.695v-.775l3.278-4.467h1.221v4.467h1.014v.775zm-1.848-.745v-3.693h-.09l-2.711 3.693h2.8zm3.635 4.11h-.596l.656-1.608a.511.511 0 01-.387-.507c0-.327.238-.565.566-.565.238 0 .566.119.566.565 0 .149-.03.388-.805 2.115zm7.152-3.365h-1.013v1.638h-.804v-1.638h-3.696v-.775l3.278-4.467h1.222v4.467h1.013v.775zm-1.847-.745v-3.693h-.09l-2.711 3.693h2.801zm-17.224 66.111v6.879H87.7v-5.926l-1.58.625v-.804l2.027-.774h.358zm3.605 0v6.879h-.804v-5.926l-1.58.625v-.804l2.027-.774h.357zm2.295 8.577h-.566l.655-1.609a.51.51 0 01-.387-.506c0-.327.238-.566.566-.566.238 0 .566.119.566.566 0 .149-.03.387-.834 2.115zm7.271-4.051c0 1.489-1.132 2.442-2.563 2.442-1.4 0-2.563-.923-2.563-2.471 0-1.191.716-2.144 2.504-4.497h.953l-1.966 2.621a2.484 2.484 0 011.28-.358c1.223 0 2.355.804 2.355 2.263zm-.805 0c0-1.042-.774-1.637-1.758-1.637-1.013 0-1.758.625-1.758 1.667 0 1.043.775 1.668 1.729 1.668 1.013 0 1.787-.685 1.787-1.698zm-49.527-68.493H46.19v-.596l1.996-1.727c1.67-1.459 2.176-1.876 2.176-2.591 0-.744-.596-1.28-1.55-1.28-.983 0-1.52.566-1.728 1.459h-.835c.209-1.37 1.192-2.234 2.593-2.234 1.4 0 2.324.894 2.324 2.025 0 1.013-.715 1.638-2.324 3.038l-1.311 1.132h3.814v.774zm1.877 1.698h-.566l.656-1.608a.511.511 0 01-.387-.507c0-.327.238-.565.566-.565.238 0 .566.119.566.565-.03.149-.06.387-.835 2.115zm7.003-6.194c0 1.191-.715 2.144-2.503 4.496h-.953l1.967-2.62a2.493 2.493 0 01-1.282.357c-1.222 0-2.354-.804-2.354-2.293s1.132-2.442 2.563-2.442c1.4 0 2.563.923 2.563 2.502zm-.804-.06c0-1.042-.775-1.668-1.758-1.668-.984 0-1.758.655-1.758 1.668 0 1.042.774 1.638 1.728 1.638 1.043.03 1.788-.596 1.788-1.638z" fill="#141414"/><path d="M4.887 158.16h126.62m-74.619-44.134h24.019m0 0v44.104" stroke="#141414" stroke-width="1.5" stroke-miterlimit="22.926" stroke-linecap="round" stroke-linejoin="round" stroke-dasharray="10 10"/><path d="M61.596 37.433v21.65H.15V318.88h25.598v-5.896H23.78v-9.828H8.016V100.804h14.959v-18.91h19.698v-3.157H8.016V66.915h48.455v47.201h3.159V66.945h9.833V46.307H84.93v-8.904l-23.333.03zm-41.75 44.461v15.753H8.047V81.895h11.8z" fill="#141414" stroke="#141414" stroke-miterlimit="10"/><path d="M58.438 78.767H8.016v3.336h50.422v-3.336zm70.208-41.334v8.874h1.49v35.021h3.159V46.307h42.673v1.966h.09v16.915h16.956v71.65h-59.749v-24.003h-3.159v190.322H94.644v9.828h-1.967v5.896h45.296V144.7h62.878V37.403l-72.205.03zm64.308 24.598h-13.797V48.243h13.797v13.788z" fill="#141414" stroke="#141414" stroke-miterlimit="10"/></g><defs><clipPath id="clip0_580_87702"><path fill="#fff" d="M0 0h201v319H0z"/></clipPath></defs></svg>