<svg width="224" height="39" fill="none" xmlns="http://www.w3.org/2000/svg"><path d="M79.487 16.743v21.06H75.31V23.677l-7.794 7.794-7.794-7.794v14.126h-4.178v-21.06h2.766l9.206 9.206 9.206-9.206h2.766zm25.781 10.52c0 6.124-4.978 11.112-11.112 11.112-6.135 0-11.083-4.978-11.083-11.112S88.04 16.18 94.156 16.18c6.114 0 11.112 4.968 11.112 11.083zm-4.178 0c0-3.823-3.112-6.934-6.934-6.934-3.823 0-6.905 3.111-6.905 6.934s3.102 6.934 6.905 6.934c3.803 0 6.934-3.111 6.934-6.934zM8.08 6.648V1.985H4.168v8.574L0 14.738v23.065h4.178V16.09l10.56-10.56 9.206 9.207h5.561L14.738 0 8.09 6.648h-.01zm6.687 19.242l-8.583-8.584v5.532l8.583 8.583 10.56-10.559v16.94h4.178V16.744h-5.58L14.766 25.9v-.01zm19.549 11.903h17.03V33.85H38.483v-4.62h10.639v-3.942H38.484v-4.652h12.861v-3.912h-17.03v21.07zM224 20.645v-3.912h-17.029v21.06H224V33.85h-12.861v-4.62h10.638v-3.942h-10.638v-4.652H224v.01zm-24.714-3.912l-9.207 9.206-9.206-9.206h-2.765v21.06h4.178V23.667l7.793 7.794 7.794-7.794v14.126h4.178v-21.06h-2.765zm-24.972 10.52c0 6.124-4.978 11.113-11.112 11.113s-11.083-4.979-11.083-11.113c0-6.134 4.968-11.083 11.083-11.083 6.114 0 11.112 4.969 11.112 11.083zm-4.178 0c0-3.823-3.111-6.934-6.934-6.934s-6.905 3.111-6.905 6.934 3.102 6.934 6.905 6.934c3.803 0 6.934-3.111 6.934-6.934zm-25.771-1.986H133.43v-8.534h-4.178v21.06h4.178v-8.594h10.935v8.594h4.178v-21.06h-4.178v8.534zm-26.996.129l-.484-.148c-2.588-.8-4.811-1.492-4.811-3.21 0-1.225 1.541-1.956 4.119-1.956 2.045 0 3.961.563 6.223 1.817l.148.08 2.055-3.26-.158-.09c-2.766-1.59-5.265-2.3-8.09-2.3s-4.959.572-6.47 1.659c-1.403 1.037-2.144 2.489-2.144 4.198 0 4.316 4.11 5.58 7.735 6.687l.306.099c2.598.81 4.85 1.511 4.85 3.2 0 1.887-2.45 2.282-4.504 2.282-2.055 0-4.416-.662-6.609-1.877l-.148-.079-2.114 3.349.158.089c2.727 1.57 5.453 2.301 8.565 2.301 5.699 0 8.979-2.291 8.979-6.282 0-4.188-4.386-5.561-7.587-6.569l-.019.01z" fill="#0032A0"/></svg>