<svg width="146" height="50" fill="none" xmlns="http://www.w3.org/2000/svg"><path d="M51.782 10.907v13.72h-2.721v-9.202l-5.078 5.077-5.077-5.077v9.202h-2.722v-13.72h1.802l5.997 5.998 5.998-5.998h1.801zm16.796 6.854A7.246 7.246 0 0161.338 25c-3.996 0-7.22-3.243-7.22-7.24a7.217 7.217 0 017.22-7.22c3.984 0 7.24 3.237 7.24 7.22zm-2.722 0a4.523 4.523 0 00-4.517-4.518c-2.49 0-4.499 2.027-4.499 4.518 0 2.49 2.021 4.517 4.498 4.517 2.478 0 4.518-2.027 4.518-4.517zM5.264 4.33V1.293H2.716V6.88L0 9.601v15.026h2.722V10.483l6.879-6.88 5.997 5.998h3.623L9.601 0l-4.33 4.33h-.007zM9.62 16.866l-5.592-5.592v3.604L9.62 20.47l6.88-6.88v11.037h2.721v-13.72h-3.635L9.62 16.873v-.007zm12.735 7.754H33.45v-2.567h-8.378V19.04H32v-2.567h-6.93v-3.031h8.378v-2.548H22.355V24.62zm123.572-11.17V10.9h-11.094v13.72h11.094v-2.567h-8.379V19.04h6.931v-2.567h-6.931v-3.031h8.379v.006zm-16.101-2.55l-5.997 5.998-5.998-5.997h-1.801v13.72h2.722v-9.203l5.077 5.078 5.077-5.078v9.202h2.722V10.9h-1.802zm-16.267 6.854c0 3.99-3.244 7.24-7.24 7.24s-7.22-3.244-7.22-7.24a7.217 7.217 0 017.22-7.22c3.983 0 7.24 3.237 7.24 7.22zm-2.722 0a4.523 4.523 0 00-4.518-4.517c-2.49 0-4.498 2.027-4.498 4.517s2.021 4.518 4.498 4.518c2.478 0 4.518-2.027 4.518-4.518zm-16.79-1.293h-7.123V10.9h-2.722v13.72h2.722v-5.6h7.124v5.6h2.722V10.9h-2.722v5.56zm-17.586.083l-.316-.096c-1.685-.521-3.133-.972-3.133-2.091 0-.798 1.003-1.275 2.683-1.275 1.332 0 2.58.367 4.054 1.184l.097.052 1.338-2.124-.103-.058c-1.802-1.036-3.43-1.499-5.27-1.499-1.84 0-3.23.373-4.215 1.081-.914.676-1.397 1.622-1.397 2.735 0 2.812 2.677 3.636 5.04 4.357l.199.064c1.692.527 3.16.984 3.16 2.085 0 1.229-1.597 1.486-2.935 1.486-1.339 0-2.877-.43-4.305-1.222l-.097-.052-1.377 2.182.103.058c1.776 1.023 3.552 1.499 5.58 1.499 3.712 0 5.849-1.493 5.849-4.093 0-2.728-2.857-3.623-4.942-4.279l-.013.006z" fill="#fff"/><path opacity=".4" d="M4.3 47.14c-1.167 0-2.095-.392-2.782-1.177-.684-.79-1.026-1.854-1.026-3.194 0-1.328.346-2.386 1.037-3.175.692-.793 1.616-1.19 2.772-1.19.922 0 1.703.258 2.344.774.644.512 1.033 1.19 1.166 2.033H6.744a2.29 2.29 0 00-.873-1.33c-.445-.336-.969-.504-1.57-.504-.824 0-1.485.308-1.98.926-.497.617-.745 1.44-.745 2.467 0 1.039.246 1.865.738 2.478.493.613 1.157.92 1.993.92.62 0 1.144-.143 1.57-.428.426-.285.715-.685.867-1.2h1.067c-.196.835-.596 1.478-1.202 1.927-.605.449-1.375.674-2.308.674zm7.126-.035c-.852 0-1.535-.283-2.051-.85-.516-.57-.773-1.337-.773-2.302 0-.965.257-1.73.773-2.297.516-.57 1.2-.855 2.05-.855.848 0 1.53.285 2.046.855.515.567.773 1.332.773 2.297 0 .961-.258 1.727-.773 2.297-.516.57-1.198.855-2.045.855zm-1.307-1.494c.324.399.76.598 1.307.598.547 0 .98-.197 1.3-.592.32-.398.481-.953.481-1.664 0-.71-.16-1.264-.48-1.658-.32-.398-.754-.598-1.301-.598-.547 0-.983.2-1.307.598-.32.398-.48.951-.48 1.658s.16 1.26.48 1.658zM15.275 47v-6.094h.961v.973h.024a1.88 1.88 0 01.756-.791c.328-.191.72-.287 1.177-.287.664 0 1.182.201 1.553.603.371.399.557.946.557 1.64V47h-1.02v-3.773c0-.496-.117-.873-.351-1.131-.235-.262-.584-.393-1.05-.393-.48 0-.864.156-1.154.469-.289.312-.433.726-.433 1.242V47h-1.02zm6.223-4.412c0-.523.211-.951.633-1.283.426-.336.973-.504 1.64-.504.63 0 1.153.168 1.57.504.419.336.64.761.663 1.277h-.973a.964.964 0 00-.398-.697c-.227-.168-.526-.252-.897-.252-.37 0-.67.084-.896.252a.766.766 0 00-.34.65c0 .414.338.707 1.014.88l.943.228c.613.156 1.045.359 1.295.609.254.246.38.594.38 1.043 0 .531-.226.967-.679 1.307-.453.336-1.035.504-1.746.504-.664 0-1.213-.165-1.646-.493a1.825 1.825 0 01-.727-1.312h1.02c.113.648.585.972 1.418.972.41 0 .734-.08.972-.24a.762.762 0 00.363-.662.663.663 0 00-.216-.521c-.141-.13-.381-.239-.721-.328l-1.072-.276c-1.067-.273-1.6-.826-1.6-1.658zm6.023-3.153h1.02v1.471h1.184v.838H28.54v3.621c0 .278.06.483.182.615.12.13.312.194.574.194.164 0 .305-.01.422-.03V47a3.132 3.132 0 01-.645.047c-.558 0-.957-.125-1.195-.375-.238-.25-.358-.668-.358-1.254v-3.674h-.908v-.838h.909v-1.47zM30.814 47v-6.094h.961v.996h.024a1.5 1.5 0 011.476-1.102c.082 0 .22.015.41.042v.99c-.109-.039-.29-.059-.544-.059-.395 0-.711.131-.95.393-.238.262-.357.607-.357 1.037V47h-1.02zm8.708-6.094V47h-.967v-.99h-.024c-.379.73-1.023 1.096-1.933 1.096-.66 0-1.178-.2-1.553-.598-.371-.403-.557-.951-.557-1.647v-3.955h1.02v3.774c0 1.015.469 1.523 1.406 1.523.492 0 .879-.154 1.16-.463.285-.312.428-.73.428-1.254v-3.58h1.02zm6.386 1.998h-.996a1.536 1.536 0 00-.521-.867c-.266-.227-.612-.34-1.038-.34-.53 0-.959.205-1.283.615-.324.407-.486.954-.486 1.641 0 .7.162 1.25.486 1.652.328.403.76.604 1.295.604.41 0 .748-.102 1.014-.305.27-.207.45-.496.539-.867h1.002a2.23 2.23 0 01-.826 1.494c-.469.383-1.047.575-1.735.575-.851 0-1.533-.282-2.044-.844-.512-.567-.768-1.336-.768-2.309 0-.957.256-1.72.768-2.29.511-.575 1.189-.862 2.033-.862.726 0 1.316.205 1.77.615.456.41.72.906.79 1.488zm1.277-3.469h1.02v1.471h1.184v.838h-1.184v3.621c0 .278.06.483.182.615.12.13.312.194.574.194.164 0 .305-.01.422-.03V47a3.13 3.13 0 01-.645.047c-.558 0-.957-.125-1.195-.375-.238-.25-.358-.668-.358-1.254v-3.674h-.908v-.838h.908v-1.47zM50.531 47v-6.094h1.02V47h-1.02zm.51-7.12a.608.608 0 01-.445-.187.609.609 0 01-.188-.445c0-.176.063-.324.188-.445a.608.608 0 01.445-.188c.176 0 .326.063.451.188.125.12.188.27.188.445 0 .172-.063.32-.188.445a.615.615 0 01-.451.188zm4.412 7.225c-.851 0-1.535-.283-2.05-.85-.516-.57-.774-1.337-.774-2.302 0-.965.258-1.73.773-2.297.516-.57 1.2-.855 2.051-.855.848 0 1.53.285 2.045.855.516.567.774 1.332.774 2.297 0 .961-.258 1.727-.774 2.297-.516.57-1.197.855-2.045.855zm-1.306-1.494c.324.399.76.598 1.306.598.547 0 .98-.197 1.3-.592.321-.398.481-.953.481-1.664 0-.71-.16-1.264-.48-1.658-.32-.398-.754-.598-1.3-.598-.548 0-.983.2-1.307.598-.32.398-.481.951-.481 1.658s.16 1.26.48 1.658zM59.303 47v-6.094h.96v.973h.024c.176-.34.428-.604.756-.791.328-.191.72-.287 1.178-.287.664 0 1.181.201 1.552.603.371.399.557.946.557 1.64V47h-1.02v-3.773c0-.496-.117-.873-.351-1.131-.234-.262-.584-.393-1.049-.393-.48 0-.865.156-1.154.469-.29.312-.434.726-.434 1.242V47h-1.02zm14.93 0l-.786-.85c-.355.317-.77.56-1.242.733a4.205 4.205 0 01-1.459.258c-.836 0-1.517-.223-2.045-.668-.527-.446-.79-1.02-.79-1.723 0-.977.552-1.758 1.657-2.344.204-.105.31-.16.323-.164-.38-.402-.649-.752-.809-1.049-.16-.3-.24-.605-.24-.914 0-.535.203-.98.61-1.336.405-.359.913-.539 1.523-.539.62 0 1.132.178 1.535.533.402.356.603.807.603 1.354 0 .43-.14.815-.422 1.154-.28.336-.744.674-1.388 1.014l2.091 2.256c.27-.504.405-1.254.405-2.25v-.252h.972v.258c0 1.238-.232 2.222-.697 2.953L75.557 47h-1.325zm-4.061-3.978c-.438.265-.75.527-.938.785a1.448 1.448 0 00-.28.873c0 .472.173.855.52 1.148.348.29.803.434 1.366.434.379 0 .748-.07 1.107-.211.364-.145.659-.336.885-.574l-2.379-2.608a1.74 1.74 0 00-.281.153zm.568-1.155c.504-.258.862-.504 1.073-.738a1.17 1.17 0 00.316-.803c0-.324-.108-.588-.322-.79-.211-.204-.487-.306-.826-.306-.333 0-.606.104-.82.311a1.058 1.058 0 00-.323.797c0 .23.068.46.205.691.137.23.37.51.697.838zM79.793 47h-1.055v-8.455h1.055V47zm1.482 0v-6.094h.961v.973h.024a1.88 1.88 0 01.756-.791c.328-.191.72-.287 1.177-.287.664 0 1.182.201 1.553.603.371.399.557.946.557 1.64V47h-1.02v-3.773c0-.496-.117-.873-.351-1.131-.235-.262-.584-.393-1.05-.393-.48 0-.864.156-1.154.469-.288.312-.433.726-.433 1.242V47h-1.02zm11.327-6.094L90.363 47H89.32l-2.244-6.094h1.072l1.682 5.01h.023l1.688-5.01h1.06zm3.07.78a1.56 1.56 0 00-1.178.492c-.308.324-.478.742-.51 1.254h3.31c-.01-.516-.165-.936-.462-1.26-.297-.324-.684-.486-1.16-.486zm1.6 3.568h1.001c-.09.539-.37.982-.843 1.33-.47.348-1.034.521-1.694.521-.87 0-1.556-.28-2.056-.843s-.75-1.325-.75-2.285c0-.954.25-1.721.75-2.303.504-.582 1.173-.873 2.01-.873.82 0 1.468.275 1.945.826.476.55.715 1.289.715 2.215v.386h-4.371v.06c0 .585.16 1.054.48 1.405.32.352.754.528 1.3.528.384 0 .71-.088.98-.264.269-.176.447-.41.532-.703zm2.003-2.666c0-.523.211-.951.633-1.283.426-.336.973-.504 1.641-.504.629 0 1.152.168 1.57.504.418.336.639.761.662 1.277h-.972a.966.966 0 00-.399-.697c-.226-.168-.525-.252-.896-.252s-.67.084-.897.252a.767.767 0 00-.34.65c0 .414.338.707 1.014.88l.943.228c.614.156 1.045.359 1.295.609.254.246.381.594.381 1.043 0 .531-.226.967-.68 1.307-.453.336-1.035.504-1.746.504-.664 0-1.213-.165-1.646-.493a1.824 1.824 0 01-.727-1.312h1.02c.113.648.586.972 1.418.972.41 0 .734-.08.972-.24a.761.761 0 00.364-.662.666.666 0 00-.217-.521c-.141-.13-.381-.239-.721-.328l-1.072-.276c-1.066-.273-1.6-.826-1.6-1.658zm6.024-3.153h1.019v1.471h1.184v.838h-1.184v3.621c0 .278.061.483.182.615.121.13.312.194.574.194.164 0 .305-.01.422-.03V47a3.132 3.132 0 01-.644.047c-.559 0-.957-.125-1.196-.375-.238-.25-.357-.668-.357-1.254v-3.674h-.908v-.838h.908v-1.47zM108.592 47v-6.094h.961v.973h.023c.149-.332.373-.594.674-.785a1.892 1.892 0 011.055-.293c.414 0 .769.101 1.066.304.297.2.512.485.645.856h.023c.168-.363.42-.646.756-.85.34-.207.725-.31 1.154-.31.602 0 1.082.181 1.442.545.363.36.545.842.545 1.447V47h-1.02v-3.973c0-.418-.111-.742-.334-.972-.219-.235-.529-.352-.932-.352-.402 0-.732.135-.99.404-.258.266-.387.606-.387 1.02V47h-1.019v-4.084c0-.367-.113-.66-.34-.879-.226-.222-.529-.334-.908-.334-.402 0-.736.14-1.002.422-.262.281-.393.633-.393 1.055V47h-1.019zm12.088-5.315c-.473 0-.866.165-1.178.493-.309.324-.479.742-.51 1.254h3.311c-.012-.516-.166-.936-.463-1.26-.297-.324-.684-.486-1.16-.486zm1.599 3.569h1.002c-.09.539-.371.982-.843 1.33-.469.348-1.034.521-1.694.521-.871 0-1.556-.28-2.056-.843s-.75-1.325-.75-2.285c0-.954.25-1.721.75-2.303.503-.582 1.173-.873 2.009-.873.821 0 1.469.275 1.946.826.476.55.714 1.289.714 2.215v.386h-4.371v.06c0 .585.16 1.054.481 1.405.32.352.754.528 1.301.528.382 0 .709-.088.978-.264.27-.176.447-.41.533-.703zm2.11 1.746v-6.094h.961v.973h.023c.176-.34.428-.604.756-.791.328-.191.721-.287 1.178-.287.664 0 1.181.201 1.552.603.371.399.557.946.557 1.64V47h-1.02v-3.773c0-.496-.117-.873-.351-1.131-.234-.262-.584-.393-1.049-.393-.48 0-.865.156-1.154.469-.289.312-.434.726-.434 1.242V47h-1.019zm6.656-7.565h1.019v1.471h1.184v.838h-1.184v3.621c0 .278.061.483.182.615.121.13.313.194.574.194.164 0 .305-.01.422-.03V47a3.125 3.125 0 01-.644.047c-.559 0-.957-.125-1.196-.375-.238-.25-.357-.668-.357-1.254v-3.674h-.908v-.838h.908v-1.47z" fill="#fff"/></svg>