<svg width="25" height="24" fill="none" xmlns="http://www.w3.org/2000/svg"><path d="M13.34 1.868l2.725 5.503a.874.874 0 00.703.515l6.017.891a.926.926 0 01.514 1.594l-4.337 4.303a.909.909 0 00-.274.823l1.045 6.052a.942.942 0 01-1.371.994l-5.417-2.863a1.011 1.011 0 00-.892 0l-5.417 2.863a.944.944 0 01-1.371-.994l1.046-6.12a.909.909 0 00-.275-.823L1.648 10.37a.925.925 0 01.565-1.594l6.018-.891a.874.874 0 00.702-.515l2.726-5.503a.926.926 0 011.68 0v0z" stroke="#141414" stroke-width="1.4" stroke-linecap="round" stroke-linejoin="round"/></svg>