<svg width="24" height="24" fill="none" xmlns="http://www.w3.org/2000/svg"><path d="M15.43 12.857c4.26 0 7.713-1.535 7.713-3.428C23.143 7.535 19.69 6 15.43 6S7.716 7.535 7.716 9.429c0 1.893 3.454 3.428 7.714 3.428z" stroke="#141414" stroke-width="1.4" stroke-linecap="round" stroke-linejoin="round"/><path d="M7.715 9.428v10.286c0 1.886 3.428 3.429 7.714 3.429 4.286 0 7.714-1.543 7.714-3.429V9.428" stroke="#141414" stroke-width="1.4" stroke-linecap="round" stroke-linejoin="round"/><path d="M23.143 14.572c0 1.885-3.428 3.428-7.714 3.428-4.286 0-7.714-1.543-7.714-3.428m7.54-11.985A11.606 11.606 0 008.57.872C4.3.872.855 2.415.855 4.301c0 1.011.995 1.92 2.572 2.571" stroke="#141414" stroke-width="1.4" stroke-linecap="round" stroke-linejoin="round"/><path d="M3.427 17.158C1.85 16.506.855 15.598.855 14.586V4.301m2.572 7.714C1.85 11.364.855 10.455.855 9.444" stroke="#141414" stroke-width="1.4" stroke-linecap="round" stroke-linejoin="round"/></svg>