<svg width="24" height="24" fill="none" xmlns="http://www.w3.org/2000/svg"><path d="M5.145 12V7.49A6.737 6.737 0 0112.002.857a6.737 6.737 0 016.857 6.634V12M2.57 9.428h1.714a.857.857 0 01.857.858v5.143a.857.857 0 01-.857.857H2.57A1.714 1.714 0 01.855 14.57v-3.428A1.714 1.714 0 012.57 9.428v0z" stroke="#141414" stroke-width="1.4" stroke-linecap="round" stroke-linejoin="round"/><path d="M21.43 16.286h-1.714a.857.857 0 01-.857-.858v-5.142a.857.857 0 01.857-.857h1.714a1.714 1.714 0 011.715 1.714v3.428a1.714 1.714 0 01-1.715 1.715v0zm-6 4.714a3.429 3.429 0 003.428-3.428v-3.858M15.428 21a2.143 2.143 0 01-2.143 2.143h-2.572a2.143 2.143 0 010-4.286h2.572A2.143 2.143 0 0115.428 21z" stroke="#141414" stroke-width="1.4" stroke-linecap="round" stroke-linejoin="round"/></svg>