<svg width="24" height="24" fill="none" xmlns="http://www.w3.org/2000/svg"><path d="M17.141 3H2.57C1.623 3 .855 3.768.855 4.714V15c0 .947.768 1.714 1.715 1.714h14.57c.947 0 1.715-.767 1.715-1.714V4.714c0-.946-.768-1.714-1.715-1.714z" stroke="#141414" stroke-width="1.4" stroke-linecap="round" stroke-linejoin="round"/><path d="M6 21h15.429a1.714 1.714 0 001.714-1.714v-8.572M4.327 10.04a.429.429 0 110-.857m-.002.857a.429.429 0 100-.857m11.061.857a.429.429 0 110-.857m-.002.857a.429.429 0 100-.857M9.858 12a2.143 2.143 0 100-4.286 2.143 2.143 0 000 4.286z" stroke="#141414" stroke-width="1.4" stroke-linecap="round" stroke-linejoin="round"/></svg>