<svg width="24" height="24" fill="none" xmlns="http://www.w3.org/2000/svg"><path d="M19.927 19.7h2.09a1 1 0 001-1v-5.774a1 1 0 00-1-1h-1.662V5.072a1 1 0 00-1-1H2.172a1 1 0 00-1 1v13.77c0 .474.384.858.858.858h1.397M20.355 7.215H1.174m19.181 4.711H1.174m6.478-4.711v4.705m6.118-4.705v4.705" stroke="#141414" stroke-width="1.4" stroke-linecap="round" stroke-linejoin="round"/><circle cx="5.811" cy="19.677" r="2.393" stroke="#141414" stroke-width="1.4" stroke-linecap="round" stroke-linejoin="round"/><circle cx="17.538" cy="19.677" r="2.393" stroke="#141414" stroke-width="1.4" stroke-linecap="round" stroke-linejoin="round"/><path d="M8.207 19.677h6.939" stroke="#141414" stroke-width="1.4" stroke-linecap="round" stroke-linejoin="round"/></svg>