<svg width="24" height="24" fill="none" xmlns="http://www.w3.org/2000/svg"><path d="M10.302 17.283v3.427a.497.497 0 01-.497.48H6.207a2.484 2.484 0 01-1.508-.874" stroke="#141414" stroke-width="1.4" stroke-linecap="round" stroke-linejoin="round"/><path d="M4.696 20.333s-1.868-1.628 2.467-5.962h1.936L6.203 9.59H.875l1.456 1.867s-.976.171-.976 1.525a17.133 17.133 0 003.34 7.35v0zm13.058-9.406l2.536-1.713a.445.445 0 01.36 0 .445.445 0 01.325.205l1.97 2.947a1.712 1.712 0 010 1.525" stroke="#141414" stroke-width="1.4" stroke-linecap="round" stroke-linejoin="round"/><path d="M23.012 13.72s-.548 2.227-6.22 1.713v-1.49l-3.323 4.351 3.152 4.849.172-2.279s.634.771 1.713 0a32.091 32.091 0 004.506-7.144v0zM7.474 7.346L5.16 6.284a.514.514 0 01-.24-.651l1.953-3.906A1.713 1.713 0 018.142.87" stroke="#141414" stroke-width="1.4" stroke-linecap="round" stroke-linejoin="round"/><path d="M8.14.87s2.108 0 4.78 5.14l-1.387 1.713h5.757l2.038-5.38-2.398.737a2.074 2.074 0 00-1.25-1.713A10.062 10.062 0 0012.012.87H8.14z" stroke="#141414" stroke-width="1.4" stroke-linecap="round" stroke-linejoin="round"/></svg>