<?xml version="1.0" encoding="utf-8"?><svg viewBox="0 0 24 24" xmlns="http://www.w3.org/2000/svg" xmlns:xlink="http://www.w3.org/1999/xlink"><style>:root>svg{display:none}:root>svg:target{display:block}</style><svg fill="none" viewBox="0 0 15 14" id="icon-apartment" xmlns="http://www.w3.org/2000/svg"><path d="M14 13.5H1m9.389 0H1.722V3.909a.722.722 0 01.491-.722L10.39.5v13zm2.889-7.944a.722.722 0 00-.722-.723h-2.167V13.5h2.889V5.556zM7.5 13.5V9.167H4.611V13.5H7.5z" stroke="currentColor" stroke-linecap="round" stroke-linejoin="round"/></svg><svg fill="none" viewBox="0 0 7 12" id="icon-arrow-next" xmlns="http://www.w3.org/2000/svg"><path d="M1 11l5-5-5-5" stroke="currentColor" stroke-width="1.4" stroke-linecap="round" stroke-linejoin="round"/></svg><svg fill="none" viewBox="0 0 7 12" id="icon-arrow-prev" xmlns="http://www.w3.org/2000/svg"><path d="M6 11L1 6l5-5" stroke="currentColor" stroke-width="1.4" stroke-linecap="round" stroke-linejoin="round"/></svg><svg fill="none" viewBox="0 0 15 14" id="icon-calendar" xmlns="http://www.w3.org/2000/svg"><path d="M4.5 3.5v-3M7.5 3.5v-3M10.5 3.5v-3M13 2H2a1 1 0 00-1 1v9.5a1 1 0 001 1h11a1 1 0 001-1V3a1 1 0 00-1-1z" stroke="currentColor" stroke-linecap="round" stroke-linejoin="round"/></svg><svg fill="none" viewBox="0 0 9 7" id="icon-caret-blue" xmlns="http://www.w3.org/2000/svg"><path d="M1 1.5l3.535 3.535L8.071 1.5" stroke="#0032A0" stroke-width="1.5"/></svg><svg fill="none" viewBox="0 0 8 5" id="icon-caret-select" xmlns="http://www.w3.org/2000/svg"><path d="M1 1l3 3 3-3" stroke="currentColor" stroke-width="1.4" stroke-linecap="round" stroke-linejoin="round"/></svg><svg fill="none" viewBox="0 0 8 8" id="icon-close-bold" xmlns="http://www.w3.org/2000/svg"><g stroke="currentColor" stroke-width="1.3"><path d="M1 1.001l6 6M1 7l6-6"/></g></svg><svg fill="none" viewBox="0 0 18 19" id="icon-delete" xmlns="http://www.w3.org/2000/svg"><path d="M1.285 5h15.429" stroke="currentColor" stroke-width="1.4" stroke-linecap="round" stroke-linejoin="round"/><path d="M3.215 5h11.571v11.571a1.286 1.286 0 01-1.285 1.286h-9a1.286 1.286 0 01-1.286-1.286V5zM5.785 5v-.643a3.214 3.214 0 116.429 0V5" stroke="currentColor" stroke-width="1.4" stroke-linejoin="round"/><path d="M7.07 8.859v5.145M10.93 8.859v5.145" stroke="currentColor" stroke-width="1.4" stroke-linecap="round" stroke-linejoin="round"/></svg><svg fill="none" viewBox="0 0 24 24" id="icon-fb" xmlns="http://www.w3.org/2000/svg"><path d="M13.25 6.125V9.75h3.25c.25 0 .375.25.375.5l-.5 2.375c0 .125-.25.25-.375.25h-2.75V22H9.5v-9H7.375c-.25 0-.375-.125-.375-.375V10.25c0-.25.125-.375.375-.375H9.5V5.75C9.5 3.625 11.125 2 13.25 2h3.375c.25 0 .375.125.375.375v3c0 .25-.125.375-.375.375h-3c-.25 0-.375.125-.375.375z" stroke="currentColor" stroke-width="1.2" stroke-linecap="round" stroke-linejoin="round"/></svg><svg fill="none" viewBox="0 0 16 16" id="icon-hamburger" xmlns="http://www.w3.org/2000/svg"><path d="M2 4h12M2 8h12M2 12h12" stroke="currentColor" stroke-width="1.4" stroke-linecap="round" stroke-linejoin="round"/></svg><svg fill="none" viewBox="0 0 18 18" id="icon-heart" xmlns="http://www.w3.org/2000/svg"><path d="M9.005 15.92L1.967 9.545C-1.86 5.72 3.764-1.625 9.005 4.317c5.24-5.942 10.838 1.428 7.039 5.228L9.005 15.92z" stroke="currentColor" stroke-width="1.4" stroke-linecap="round" stroke-linejoin="round"/></svg><svg fill="none" viewBox="0 0 24 24" id="icon-inst" xmlns="http://www.w3.org/2000/svg"><path d="M9 22h6c5 0 7-2 7-7V9c0-5-2-7-7-7H9C4 2 2 4 2 9v6c0 5 2 7 7 7z" stroke="currentColor" stroke-width="1.2" stroke-linecap="round" stroke-linejoin="round"/><path d="M12 15.5a3.5 3.5 0 100-7 3.5 3.5 0 000 7zM17.636 7h.012" stroke="currentColor" stroke-width="1.2" stroke-linecap="round" stroke-linejoin="round"/></svg><svg fill="none" viewBox="0 0 24 21" id="icon-like" xmlns="http://www.w3.org/2000/svg"><path d="M12.007 20L2.67 11.248c-5.074-5.25 2.385-15.332 9.336-7.176 6.951-8.156 14.376 1.96 9.336 7.176L12.007 20z" stroke="currentColor" stroke-width="1.4" stroke-linecap="round" stroke-linejoin="round"/></svg><svg fill="none" viewBox="0 0 24 21" id="icon-like-filled" xmlns="http://www.w3.org/2000/svg"><path d="M12.007 20L2.67 11.248c-5.074-5.25 2.385-15.332 9.336-7.176 6.951-8.156 14.376 1.96 9.336 7.176L12.007 20z" fill="currentColor" stroke="currentColor" stroke-width="1.4" stroke-linecap="round" stroke-linejoin="round"/></svg><svg fill="none" viewBox="0 0 20 19" id="icon-map" xmlns="http://www.w3.org/2000/svg"><path d="M7.21 16.571l-5.567 1.286V2.43L7.21 1.143V16.57zM7.21 16.571l5.58 1.286V2.43L7.21 1.143V16.57zM18.357 16.571l-5.567 1.286V2.43l5.567-1.286V16.57z" stroke="currentColor" stroke-width="1.4" stroke-linejoin="round"/></svg><svg fill="none" viewBox="0 0 12 10" id="icon-mark-dark" xmlns="http://www.w3.org/2000/svg"><path d="M1.355 6.107l1.95 2.507a.714.714 0 001.115.022l6.221-7.529" stroke="#141414" stroke-width="1.4" stroke-linecap="round" stroke-linejoin="round"/></svg><svg fill="none" viewBox="0 0 20 20" id="icon-search" xmlns="http://www.w3.org/2000/svg"><path d="M8.716 15.786a7.071 7.071 0 100-14.143 7.071 7.071 0 000 14.143zM18.355 18.357l-4.5-4.5" stroke="currentColor" stroke-width="1.4" stroke-linecap="round" stroke-linejoin="round"/></svg><svg fill="none" viewBox="0 0 15 14" id="icon-square" xmlns="http://www.w3.org/2000/svg"><path d="M9 5.5l5-5M10 .5h4v4M6 5.5l-5-5M5 .5H1v4M9 8.5l5 5M10 13.5h4v-4M6 8.5l-5 5M5 13.5H1v-4" stroke="currentColor" stroke-linecap="round" stroke-linejoin="round"/></svg><svg fill="none" viewBox="0 0 15 14" id="icon-wave" xmlns="http://www.w3.org/2000/svg"><path d="M14 13.341a2.351 2.351 0 01-1.5-1.35 2.489 2.489 0 01-2.5 1.5 2.491 2.491 0 01-2.5-1.5 2.49 2.49 0 01-2.5 1.5 2.491 2.491 0 01-2.5-1.5 2.349 2.349 0 01-1.5 1.35M14 9.344a2.376 2.376 0 01-1.5-1.35c-.418.976-1.5 1.5-2.5 1.5-2 0-3.5-1.5-3.5-2.998 0-1.999 1-3.997 3.5-2.998C9.833 2.498 8.8.5 6 .5S1.5 2.499 1 3.498" stroke="currentColor" stroke-linecap="round" stroke-linejoin="round"/></svg><svg fill="none" viewBox="0 0 24 24" id="icon-yt" xmlns="http://www.w3.org/2000/svg"><path d="M17 20H7c-3 0-5-2-5-5V9c0-3 2-5 5-5h10c3 0 5 2 5 5v6c0 3-2 5-5 5z" stroke="currentColor" stroke-width="1.2" stroke-linecap="round" stroke-linejoin="round"/><path d="M11.402 9.5l2.5 1.5c.9.6.9 1.5 0 2.1l-2.5 1.5c-1 .6-1.8.1-1.8-1v-3c0-1.3.8-1.7 1.8-1.1z" stroke="currentColor" stroke-width="1.2" stroke-linecap="round" stroke-linejoin="round"/></svg></svg>