<?xml version="1.0" encoding="utf-8"?><svg viewBox="0 0 24 24" xmlns="http://www.w3.org/2000/svg" xmlns:xlink="http://www.w3.org/1999/xlink"><style>:root>svg{display:none}:root>svg:target{display:block}</style><svg fill="none" viewBox="0 0 7 12" id="icon-arrow-next" xmlns="http://www.w3.org/2000/svg"><path d="M1 11l5-5-5-5" stroke="currentColor" stroke-width="1.4" stroke-linecap="round" stroke-linejoin="round"/></svg><svg fill="none" viewBox="0 0 7 12" id="icon-arrow-prev" xmlns="http://www.w3.org/2000/svg"><path d="M6 11L1 6l5-5" stroke="currentColor" stroke-width="1.4" stroke-linecap="round" stroke-linejoin="round"/></svg><svg fill="none" viewBox="0 0 8 5" id="icon-caret-select" xmlns="http://www.w3.org/2000/svg"><path d="M1 1l3 3 3-3" stroke="currentColor" stroke-width="1.4" stroke-linecap="round" stroke-linejoin="round"/></svg><svg fill="none" viewBox="0 0 24 24" id="icon-fb" xmlns="http://www.w3.org/2000/svg"><path d="M13.25 6.125V9.75h3.25c.25 0 .375.25.375.5l-.5 2.375c0 .125-.25.25-.375.25h-2.75V22H9.5v-9H7.375c-.25 0-.375-.125-.375-.375V10.25c0-.25.125-.375.375-.375H9.5V5.75C9.5 3.625 11.125 2 13.25 2h3.375c.25 0 .375.125.375.375v3c0 .25-.125.375-.375.375h-3c-.25 0-.375.125-.375.375z" stroke="currentColor" stroke-width="1.2" stroke-linecap="round" stroke-linejoin="round"/></svg><svg fill="none" viewBox="0 0 16 16" id="icon-hamburger" xmlns="http://www.w3.org/2000/svg"><path d="M2 4h12M2 8h12M2 12h12" stroke="currentColor" stroke-width="1.4" stroke-linecap="round" stroke-linejoin="round"/></svg><svg fill="none" viewBox="0 0 18 18" id="icon-heart" xmlns="http://www.w3.org/2000/svg"><path d="M9.005 15.92L1.967 9.545C-1.86 5.72 3.764-1.625 9.005 4.317c5.24-5.942 10.838 1.428 7.039 5.228L9.005 15.92z" stroke="currentColor" stroke-width="1.4" stroke-linecap="round" stroke-linejoin="round"/></svg><svg fill="none" viewBox="0 0 24 24" id="icon-inst" xmlns="http://www.w3.org/2000/svg"><path d="M9 22h6c5 0 7-2 7-7V9c0-5-2-7-7-7H9C4 2 2 4 2 9v6c0 5 2 7 7 7z" stroke="currentColor" stroke-width="1.2" stroke-linecap="round" stroke-linejoin="round"/><path d="M12 15.5a3.5 3.5 0 100-7 3.5 3.5 0 000 7zM17.636 7h.012" stroke="currentColor" stroke-width="1.2" stroke-linecap="round" stroke-linejoin="round"/></svg><svg fill="none" viewBox="0 0 12 10" id="icon-mark-dark" xmlns="http://www.w3.org/2000/svg"><path d="M1.355 6.107l1.95 2.507a.714.714 0 001.115.022l6.221-7.529" stroke="#141414" stroke-width="1.4" stroke-linecap="round" stroke-linejoin="round"/></svg><svg fill="none" viewBox="0 0 20 20" id="icon-search" xmlns="http://www.w3.org/2000/svg"><path d="M8.716 15.786a7.071 7.071 0 100-14.143 7.071 7.071 0 000 14.143zM18.355 18.357l-4.5-4.5" stroke="currentColor" stroke-width="1.4" stroke-linecap="round" stroke-linejoin="round"/></svg><svg fill="none" viewBox="0 0 24 24" id="icon-yt" xmlns="http://www.w3.org/2000/svg"><path d="M17 20H7c-3 0-5-2-5-5V9c0-3 2-5 5-5h10c3 0 5 2 5 5v6c0 3-2 5-5 5z" stroke="currentColor" stroke-width="1.2" stroke-linecap="round" stroke-linejoin="round"/><path d="M11.402 9.5l2.5 1.5c.9.6.9 1.5 0 2.1l-2.5 1.5c-1 .6-1.8.1-1.8-1v-3c0-1.3.8-1.7 1.8-1.1z" stroke="currentColor" stroke-width="1.2" stroke-linecap="round" stroke-linejoin="round"/></svg></svg>