<svg width="24" height="24" fill="none" xmlns="http://www.w3.org/2000/svg"><path d="M10.864 6.341a1.713 1.713 0 00-1.616-1.143H7.92a1.53 1.53 0 00-.327 3.025l2.02.442a1.715 1.715 0 01-.366 3.39H8.105a1.715 1.715 0 01-1.617-1.143m2.189-5.714V3.484m0 10.286v-1.715m3.269 11.086v-9a2.143 2.143 0 012.143-2.143v0a2.143 2.143 0 012.143 2.143v4.714h3.429a3.429 3.429 0 013.428 3.429v.857m-14.41-6.746a7.768 7.768 0 117.696-6.705" stroke="#141414" stroke-width="1.4" stroke-linecap="round" stroke-linejoin="round"/></svg>