<svg width="24" height="24" fill="none" xmlns="http://www.w3.org/2000/svg"><path d="M.94 5.288l3.762 2.025L8.06 6.73a3.824 3.824 0 013.163.884v0m8.117 8.299l-5.32 3.777a3.429 3.429 0 01-3.915.038L.938 13.479" stroke="#141414" stroke-width="1.4" stroke-linecap="round" stroke-linejoin="round"/><path d="M22.976 13.439l-3.764 2.571-5.839-4.715-2.148 1.564a2.003 2.003 0 01-2.758-.387v0a2.003 2.003 0 01.29-2.766l2.236-1.881a5.143 5.143 0 013.858-1.179l3.486.373 4.639-2.507m-9.603 6.797c1.405 1.252 3.398.613 4.139-.409" stroke="#141414" stroke-width="1.4" stroke-linecap="round" stroke-linejoin="round"/></svg>